<svg id="Layer_1" enable-background="new 0 0 512 512" height="512" viewBox="0 0 512 512" width="512" xmlns="http://www.w3.org/2000/svg"><g><path d="m345 512h-178c-2.209 0-4-1.791-4-4v-384.396c0-51.284 41.574-92.858 92.858-92.858h.284c51.284 0 92.858 41.574 92.858 92.858v384.396c0 2.209-1.791 4-4 4z" fill="#fdba91"/><path d="m256 30.746c-5.282 0-10.459.446-15.5 1.289 43.983 7.358 77.5 45.487 77.5 91.427v388.538h27c2.209 0 4-1.791 4-4v-384.538c0-51.205-41.637-92.716-93-92.716z" fill="#fc997d"/><path d="m256 194.627c-31.861 0-57.69-25.829-57.69-57.69v-108.363c0-15.781 12.793-28.574 28.574-28.574h58.232c15.781 0 28.574 12.793 28.574 28.574v108.363c0 31.861-25.829 57.69-57.69 57.69z" fill="#ffe4c4"/><path d="m300.629 332.477c-.853-.269-21.163-6.569-44.629-6.569s-43.776 6.301-44.629 6.569c-3.951 1.242-6.147 5.452-4.905 9.403 1.243 3.951 5.45 6.147 9.404 4.905.187-.059 18.942-5.878 40.13-5.878 21.083 0 39.948 5.821 40.13 5.878 3.95 1.242 8.161-.951 9.404-4.905 1.243-3.951-.953-8.161-4.905-9.403z" fill="#eb866c"/></g></svg>