<svg height="512pt" viewBox="0 -18 512.00087 512" width="512pt" xmlns="http://www.w3.org/2000/svg"><path d="m403.871094 68.0625c-38.753906-8.746094-100.089844-27.304688-133.277344-61.824219-7.992188-8.316406-21.191406-8.316406-29.183594 0-33.191406 34.519531-94.527344 53.078125-133.277344 61.824219-18.761718 4.234375-30.675781 22.707031-26.910156 41.566406 14.734375 73.820313 12.882813 240.152344 12.882813 240.152344h323.792969s-1.851563-166.328125 12.882812-240.152344c3.765625-18.859375-8.152344-37.335937-26.910156-41.566406zm0 0" fill="#ff4b4c"/><path d="m430.777344 109.632812c-14.730469 73.820313-12.878906 240.148438-12.878906 240.148438h-30.523438c.019531-46.179688 1.3125-162.207031 12.953125-220.523438 3.769531-18.859374-8.148437-37.339843-26.90625-41.574218-38.753906-8.75-100.089844-27.300782-133.273437-61.820313-3.84375-3.996093-8.875-6.070312-13.964844-6.226562 5.523437-4.171875 10.636718-8.636719 15.222656-13.398438 7.996094-8.3125 21.195312-8.3125 29.191406 0 33.1875 34.519531 94.519532 53.070313 133.273438 61.820313 18.757812 4.234375 30.675781 22.714844 26.90625 41.574218zm0 0" fill="#fe2b23"/><path d="m459.398438 233.464844c-23.671876-1.140625-44.234376 12.621094-53.222657 32.691406l-27.148437 68.164062c-3.964844 9.957032-13.601563 16.492188-24.320313 16.492188h-197.414062c-10.71875 0-20.355469-6.535156-24.320313-16.492188l-27.144531-68.164062c-8.992187-20.070312-29.554687-33.832031-53.226563-32.691406-28.425781 1.371094-51.425781 24.578125-52.554687 53.015625-1.140625 28.648437 19.507813 52.703125 46.714844 56.933593 5.246093.816407 9.390625 4.882813 10.402343 10.09375l19.164063 99.085938c2.621094 13.546875 14.480469 23.332031 28.277344 23.332031h302.789062c13.796875 0 25.65625-9.785156 28.277344-23.332031l19.167969-99.085938c1.007812-5.210937 5.152344-9.277343 10.402344-10.09375 27.207031-4.230468 47.851562-28.285156 46.714843-56.933593-1.132812-28.4375-24.132812-51.644531-52.558593-53.015625zm0 0" fill="#db2c34"/><path d="m465.324219 343.40625c-5.277344.828125-9.472657 4.863281-10.484375 10.105469l-19.164063 99.082031c-2.625 13.542969-14.484375 23.335938-28.28125 23.335938h-32.910156c12.273437-.269532 23.808594-2.230469 30.617187-14.410157 7.117188-12.746093 7.664063-28.105469 10.453126-42.121093 5.695312-28.597657 11.144531-57.234376 16.652343-85.871094 1.582031-8.203125 8.074219-14.636719 16.324219-15.976563 28.113281-4.566406 43.015625-29.441406 41.925781-56.960937-.257812-6.476563-1.652343-12.683594-3.984375-18.417969 14.738282 9.492187 24.746094 25.792969 25.480469 44.3125 1.140625 28.617187-19.460937 52.652344-46.628906 56.921875zm0 0" fill="#bf222a"/><path d="m98.34375 254.023438 32.179688 84.039062c3.824218 9.976562 13.398437 16.566406 24.082031 16.566406h202.789062c10.683594 0 20.261719-6.589844 24.082031-16.566406l32.183594-84.039062zm0 0" fill="#fef1da"/><path d="m413.65625 254.023438-32.183594 84.042968c-3.816406 9.972656-13.390625 16.5625-24.074218 16.5625h-202.796876c-10.683593 0-20.257812-6.589844-24.074218-16.5625l-2.085938-5.464844c2.261719.652344 4.640625 1 7.074219 1h205.484375c10.683594 0 20.257812-6.585937 24.082031-16.566406l24.125-63.011718zm0 0" fill="#fde6bf"/><g fill="#db2c34"><path d="m184.230469 133.042969c0 6-4.863281 10.863281-10.863281 10.863281-5.996094 0-10.859376-4.863281-10.859376-10.863281s4.863282-10.863281 10.859376-10.863281c6 0 10.863281 4.863281 10.863281 10.863281zm0 0"/><path d="m266.863281 133.042969c0 6-4.863281 10.863281-10.863281 10.863281s-10.863281-4.863281-10.863281-10.863281 4.863281-10.863281 10.863281-10.863281 10.863281 4.863281 10.863281 10.863281zm0 0"/><path d="m349.496094 133.042969c0 6-4.863282 10.863281-10.863282 10.863281s-10.863281-4.863281-10.863281-10.863281 4.863281-10.863281 10.863281-10.863281 10.863282 4.863281 10.863282 10.863281zm0 0"/><path d="m225.546875 188.820312c0 6-4.863281 10.863282-10.863281 10.863282s-10.863282-4.863282-10.863282-10.863282 4.863282-10.863281 10.863282-10.863281 10.863281 4.863281 10.863281 10.863281zm0 0"/><path d="m308.179688 188.820312c0 6-4.863282 10.863282-10.863282 10.863282s-10.863281-4.863282-10.863281-10.863282 4.863281-10.863281 10.863281-10.863281 10.863282 4.863281 10.863282 10.863281zm0 0"/></g></svg>