<svg height="512pt" viewBox="0 -41 512 512" width="512pt" xmlns="http://www.w3.org/2000/svg"><path d="m446.523438 81.191406c-49.929688-10.433594-128.960938-32.570312-171.722657-73.753906-10.300781-9.917969-27.304687-9.917969-37.601562 0-42.761719 41.183594-121.792969 63.320312-171.722657 73.753906-24.167968 5.050782-39.523437 27.089844-34.671874 49.585938 18.984374 88.0625 16.601562 120.445312 16.601562 120.445312h417.1875s-2.386719-32.382812 16.601562-120.445312c4.847657-22.496094-10.503906-44.535156-34.671874-49.585938zm0 0" fill="#b2693f"/><path d="m481.195312 130.78125c-18.988281 88.058594-16.601562 120.441406-16.601562 120.441406h-26.449219c1.039063-17.484375 4.640625-50.558594 16.304688-104.621094 4.847656-22.5-10.507813-44.542968-34.675781-49.585937-49.925782-10.433594-128.953126-32.570313-171.71875-73.757813-5.5625-5.355468-13.074219-7.8125-20.433594-7.386718 3.355468-2.714844 6.554687-5.523438 9.578125-8.433594 10.296875-9.914062 27.304687-9.914062 37.605469 0 42.765624 41.179688 121.792968 63.324219 171.71875 73.757812 24.167968 5.046876 39.523437 27.089844 34.671874 49.585938zm0 0" fill="#9e5632"/><path d="m233.863281 178.019531c-5.195312-5.195312-13.617187-5.195312-18.8125 0l-4.855469 4.855469c-5.433593 5.433594-12.800781 8.484375-20.480468 8.484375h-43.003906c-7.683594 0-15.050782-3.050781-20.480469-8.484375l-4.855469-4.855469c-5.195312-5.195312-13.617188-5.195312-18.8125 0-5.195312 5.195313-5.195312 13.617188 0 18.8125l4.304688 4.304688c2.960937 2.960937 4.429687 7.113281 3.933593 11.269531-2.980469 24.976562 1.058594 37.464844 1.058594 37.464844h111.738281s5.007813-12.492188 2.023438-37.480469c-.496094-4.148437.980468-8.296875 3.933594-11.253906l4.304687-4.304688c5.199219-5.195312 5.199219-13.617187.003906-18.8125zm0 0" fill="#fec608"/><path d="m409.4375 178.019531c-5.195312-5.195312-13.617188-5.195312-18.8125 0l-4.855469 4.855469c-5.429687 5.433594-12.796875 8.484375-20.480469 8.484375h-43.003906c-7.679687 0-15.046875-3.050781-20.480468-8.484375l-4.855469-4.855469c-5.195313-5.195312-13.617188-5.195312-18.8125 0-5.195313 5.195313-5.195313 13.617188 0 18.8125l4.304687 4.304688c2.960938 2.960937 4.429688 7.113281 3.9375 11.269531-2.984375 24.976562 1.058594 37.464844 1.058594 37.464844h111.734375s5.007813-12.492188 2.023437-37.480469c-.496093-4.148437.980469-8.296875 3.9375-11.253906l4.304688-4.304688c5.195312-5.195312 5.195312-13.617187 0-18.8125zm0 0" fill="#fec608"/><path d="m233.863281 196.828125-4.300781 4.3125c-2.964844 2.953125-4.4375 7.101563-3.945312 11.25 2.984374 24.984375-2.019532 37.480469-2.019532 37.480469h-21.671875s5.003907-12.496094 2.023438-37.480469c-.496094-4.148437.980469-8.296875 3.941406-11.25l4.300781-4.3125c4.707032-4.707031 5.152344-12.066406 1.324219-17.265625l1.535156-1.539062c5.191407-5.199219 13.613281-5.199219 18.8125 0 5.191407 5.191406 5.191407 13.613281 0 18.804687zm0 0" fill="#fca630"/><path d="m409.433594 196.828125-4.304688 4.3125c-2.949218 2.953125-4.425781 7.101563-3.929687 11.25 2.980469 24.984375-2.023438 37.480469-2.023438 37.480469h-21.671875s5.003906-12.496094 2.023438-37.480469c-.496094-4.148437.980468-8.296875 3.933594-11.25l4.300781-4.3125c4.714843-4.707031 5.160156-12.066406 1.320312-17.265625l1.550781-1.539062c5.1875-5.199219 13.609376-5.199219 18.800782 0 5.199218 5.191406 5.199218 13.613281 0 18.804687zm0 0" fill="#fca630"/><g fill="#d1956c"><path d="m184.296875 97.5c0 5.996094-4.859375 10.855469-10.855469 10.855469-5.992187 0-10.851562-4.859375-10.851562-10.855469s4.859375-10.855469 10.851562-10.855469c5.996094 0 10.855469 4.859375 10.855469 10.855469zm0 0"/><path d="m266.855469 97.5c0 5.996094-4.859375 10.855469-10.855469 10.855469s-10.855469-4.859375-10.855469-10.855469 4.859375-10.855469 10.855469-10.855469 10.855469 4.859375 10.855469 10.855469zm0 0"/><path d="m349.410156 97.5c0 5.996094-4.859375 10.855469-10.851562 10.855469-5.996094 0-10.855469-4.859375-10.855469-10.855469s4.859375-10.855469 10.855469-10.855469c5.992187 0 10.851562 4.859375 10.851562 10.855469zm0 0"/><path d="m225.574219 135.113281c0 5.992188-4.859375 10.851563-10.851563 10.851563-5.996094 0-10.855468-4.859375-10.855468-10.851563 0-5.992187 4.859374-10.851562 10.855468-10.851562 5.992188 0 10.851563 4.859375 10.851563 10.851562zm0 0"/><path d="m308.132812 135.113281c0 5.992188-4.859374 10.851563-10.855468 10.851563-5.992188 0-10.851563-4.859375-10.851563-10.851563 0-5.992187 4.859375-10.851562 10.851563-10.851562 5.996094 0 10.855468 4.859375 10.855468 10.851562zm0 0"/></g><path d="m491.273438 335.945312h-470.546876v-74.941406c0-7.804687 6.324219-14.128906 14.125-14.128906h442.296876c7.800781 0 14.125 6.324219 14.125 14.128906zm0 0" fill="#a3c3f5"/><path d="m491.277344 261v74.949219h-470.554688v-22.691407h432.847656c7.433594 0 13.457032-6.023437 13.457032-13.457031v-52.929687h10.125c7.800781 0 14.125 6.324218 14.125 14.128906zm0 0" fill="#92b2de"/><path d="m61.628906 430.707031c-11.785156 0-21.339844-9.554687-21.339844-21.339843v-38.207032h42.675782v38.207032c0 11.785156-9.554688 21.339843-21.335938 21.339843zm0 0" fill="#d1956c"/><path d="m450.371094 430.707031c-11.78125 0-21.335938-9.554687-21.335938-21.339843v-38.207032h42.675782v38.207032c0 11.785156-9.554688 21.339843-21.339844 21.339843zm0 0" fill="#d1956c"/><path d="m82.96875 371.15625v38.214844c0 11.785156-9.554688 21.332031-21.339844 21.332031-7.472656 0-14.035156-3.828125-17.851562-9.640625 11.609375-.207031 20.949218-9.679688 20.949218-21.332031v-28.574219zm0 0" fill="#b57756"/><path d="m471.710938 371.15625v38.214844c0 11.785156-9.554688 21.332031-21.339844 21.332031-7.472656 0-14.035156-3.828125-17.851563-9.640625 11.609375-.195312 20.949219-9.667969 20.949219-21.332031v-28.574219zm0 0" fill="#b57756"/><path d="m503.546875 375.796875h-495.09375c-4.667969 0-8.453125-3.785156-8.453125-8.453125v-28.097656c0-4.667969 3.785156-8.449219 8.453125-8.449219h495.09375c4.667969 0 8.453125 3.78125 8.453125 8.449219v28.097656c0 4.667969-3.785156 8.453125-8.453125 8.453125zm0 0" fill="#b2693f"/></svg>