<svg height="512pt" viewBox="-119 0 512 512.001" width="512pt" xmlns="http://www.w3.org/2000/svg"><path d="m61.03125 244.5h36.492188v54h-36.492188zm0 0" fill="#b2693f"/><path d="m176.355469 244.5h36.496093v54h-36.496093zm0 0" fill="#b2693f"/><path d="m61.03125 244.5h36.492188v23.210938h-36.492188zm0 0" fill="#9e5632"/><path d="m176.355469 244.5h36.496093v23.210938h-36.496093zm0 0" fill="#9e5632"/><path d="m36.734375 358.570312-5.003906 141.453126c-.230469 6.542968 5.007812 11.972656 11.554687 11.972656 5.125 0 9.636719-3.375 11.089844-8.285156l42.878906-145.140626zm0 0" fill="#b2693f"/><path d="m237.148438 358.570312 5.003906 141.453126c.230468 6.542968-5.011719 11.972656-11.558594 11.972656-5.121094 0-9.636719-3.375-11.089844-8.285156l-42.875-145.140626zm0 0" fill="#b2693f"/><path d="m97.257812 358.566406-42.878906 145.140625c-.730468 2.457031-2.222656 4.527344-4.175781 5.988281-1.941406 1.457032-4.355469 2.304688-6.917969 2.304688-3.292968 0-6.253906-1.371094-8.359375-3.570312 1.257813-1.296876 2.210938-2.90625 2.746094-4.71875l42.871094-145.144532zm0 0" fill="#9e5632"/><path d="m242.152344 500.027344c.234375 6.542968-5.011719 11.972656-11.554688 11.972656-2.5625 0-4.976562-.847656-6.921875-2.308594-.511719-.382812-.984375-.804687-1.425781-1.265625 2.070312-2.164062 3.304688-5.148437 3.199219-8.398437l-5.011719-141.460938h16.714844zm0 0" fill="#9e5632"/><path d="m253.289062 229.59375c-1.183593 11.816406-11.128906 20.816406-23.007812 20.816406h-186.679688c-11.878906 0-21.824218-9-23.007812-20.816406l-20.476562-204.160156c-1.367188-13.617188 9.324218-25.433594 23.007812-25.433594h227.628906c13.683594 0 24.375 11.816406 23.007813 25.433594zm0 0" fill="#fec608"/><path d="m273.765625 25.433594-20.472656 204.164062c-1.183594 11.8125-11.132813 20.8125-23.007813 20.8125h-186.6875c-11.878906 0-21.824218-9-23.011718-20.8125l-.800782-8.0625h186.6875c11.875 0 21.820313-9 23.007813-20.8125l20.132812-200.71874975h1.144531c13.679688 0 24.371094 11.81249975 23.007813 25.42968775zm0 0" fill="#fca630"/><path d="m251.980469 364.570312h-230.078125c-7.441406 0-13.46875-6.03125-13.46875-13.46875v-43.667968c0-7.4375 6.027344-13.464844 13.46875-13.464844h230.078125c7.4375 0 13.46875 6.027344 13.46875 13.464844v43.667968c0 7.4375-6.03125 13.46875-13.46875 13.46875zm0 0" fill="#fec608"/><path d="m265.449219 307.4375v43.664062c0 7.4375-6.03125 13.464844-13.46875 13.464844h-230.078125c-7.441406 0-13.46875-6.027344-13.46875-13.464844v-8.398437h226.570312c7.4375 0 13.46875-6.027344 13.46875-13.464844v-35.265625h3.507813c7.4375 0 13.46875 6.027344 13.46875 13.464844zm0 0" fill="#fca630"/></svg>