<svg height="512pt" viewBox="-92 0 512 512" width="512pt" xmlns="http://www.w3.org/2000/svg"><path d="m94.042969 247.925781h141.195312v45.808594h-141.195312zm0 0" fill="#d1956c"/><path d="m257.527344 0h-185.773438c-7.695312 0-14.402344 5.246094-16.253906 12.71875l-55 221.941406c-2.617188 10.5625 5.375 20.777344 16.253906 20.777344h295.773438c10.878906 0 18.871094-10.214844 16.253906-20.777344l-55-221.941406c-1.851562-7.472656-8.554688-12.71875-16.253906-12.71875zm0 0" fill="#fef1da"/><path d="m312.523438 255.4375h-29.980469c10.878906 0 18.863281-10.21875 16.25-20.777344l-54.992188-221.9375c-1.859375-7.472656-8.566406-12.71874975-16.261719-12.71874975h29.992188c7.695312 0 14.402344 5.24609375 16.25 12.71874975l55.003906 221.9375c2.617188 10.558594-5.382812 20.777344-16.261718 20.777344zm0 0" fill="#fde6bf"/><path d="m94.042969 255.433594h141.195312v17.007812h-141.195312zm0 0" fill="#b57756"/><path d="m201.363281 512h-73.445312c-3.078125 0-5.570313-2.492188-5.570313-5.570312v-37.191407h84.585938v37.191407c0 3.078124-2.492188 5.570312-5.570313 5.570312zm0 0" fill="#d1956c"/><path d="m206.9375 475.910156v30.519532c0 3.078124-2.5 5.566406-5.570312 5.566406h-73.453126c-3.070312 0-5.570312-2.488282-5.570312-5.566406v-10.851563h60.429688c3.066406 0 5.566406-2.5 5.566406-5.566406v-14.101563zm0 0" fill="#b57756"/><path d="m277.855469 357.5c-5.632813-48.371094-42.617188-68.050781-42.617188-68.050781h-141.195312s-36.984375 19.679687-42.617188 68.050781c0 0-18.503906 82.304688 69.996094 118.402344h86.4375c88.5-36.097656 69.996094-118.402344 69.996094-118.402344zm0 0" fill="#b2693f"/><path d="m207.859375 475.898438h-86.433594c-17.367187-7.085938-30.625-15.953126-40.695312-25.640626 5.382812 3.097657 11.292969 5.988282 17.769531 8.636719h56.5c58.945312 0 105.832031-50.082031 101.203125-108.84375-.472656-5.984375-1.277344-9.554687-1.277344-9.554687-2.726562-23.382813-12.769531-40.054688-22.429687-51.050782h2.738281s36.988281 19.683594 42.617187 68.054688c0 0 18.503907 82.300781-69.992187 118.398438zm0 0" fill="#9e5632"/><path d="m312.496094 168.933594c-19.835938-1.550782-24.226563-6.386719-51.417969-6.386719-32.441406 0-32.441406 6.871094-64.882813 6.871094-32.429687 0-32.429687-6.871094-64.871093-6.871094-32.429688 0-32.429688 6.871094-64.871094 6.871094-25.695313 0-31.035156-4.308594-48.265625-6.105469l21.238281-85.710938c14.113281 1.871094 19.0625 5.972657 40.808594 5.972657 28.164063 0 28.164063-6.871094 56.328125-6.871094s28.164062 6.871094 56.328125 6.871094c28.171875 0 28.171875-6.871094 56.335937-6.871094 22.316407 0 26.945313 4.308594 41.925782 6.105469zm0 0" fill="#ff4b4c"/><path d="m312.496094 168.933594c-19.835938-1.550782-24.226563-6.386719-51.417969-6.386719-32.441406 0-32.441406 6.871094-64.882813 6.871094-32.429687 0-32.429687-6.871094-64.871093-6.871094-32.429688 0-32.429688 6.871094-64.871094 6.871094-25.695313 0-31.035156-4.308594-48.265625-6.105469 0 0 5.390625-21.78125 5.398438-21.78125 15.097656.414062 29.867187 4.277344 44.964843 4.6875 14.300781.390625 26.949219-5.9375 41.054688-8.023438 12.734375-1.882812 24.460937-.355468 37.101562.882813 10.039063.984375 18.824219 5.839844 28.894531 6.1875 11.914063.410156 24.753907 2.023437 36.613282.371094 9.304687-1.296875 18.132812-5.066407 27.335937-6.515625 10.503907-1.660156 35.703125.554687 31.484375-16.472656l-11.289062-45.5625c13.800781 1.09375 19.132812 4.246093 31.40625 5.722656zm0 0" fill="#fe2b23"/></svg>