<svg height="512pt" viewBox="0 -54 512.001 512" width="512pt" xmlns="http://www.w3.org/2000/svg"><path d="m225.074219 303.699219h61.851562v55.71875h-61.851562zm0 0" fill="#a3c3f5"/><path d="m225.074219 303.699219h61.851562v27.855469h-61.851562zm0 0" fill="#92b2de"/><path d="m322.871094 403.441406h-142c-2.957032 0-5.351563-2.398437-5.351563-5.355468v-29.03125c0-8.195313 6.644531-14.839844 14.839844-14.839844h123.027344c8.199219 0 14.839843 6.644531 14.839843 14.839844v29.03125c0 2.957031-2.398437 5.355468-5.355468 5.355468zm0 0" fill="#3e73b7"/><path d="m496.628906 311.199219h-481.257812c-8.488282 0-15.371094-6.878907-15.371094-15.371094v-280.457031c0-8.488282 6.882812-15.371094 15.371094-15.371094h481.257812c8.488282 0 15.371094 6.882812 15.371094 15.371094v280.460937c0 8.488281-6.882812 15.367188-15.371094 15.367188zm0 0" fill="#3e73b7"/><path d="m511.996094 15.375v280.449219c0 8.492187-6.882813 15.375-15.363282 15.375h-481.265624c-8.480469 0-15.36328175-6.882813-15.36328175-15.375v-9.214844h478.57031275c8.492187 0 15.375-6.882813 15.375-15.371094v-271.238281h2.683593c8.480469 0 15.363282 6.882812 15.363282 15.375zm0 0" fill="#1e5996"/><path d="m464.707031 269.648438h-417.414062c-4.089844 0-7.40625-3.320313-7.40625-7.410157v-213.273437c0-4.09375 3.316406-7.410156 7.40625-7.410156h417.410156c4.09375 0 7.410156 3.316406 7.410156 7.410156v213.273437c0 4.089844-3.316406 7.410157-7.40625 7.410157zm0 0" fill="#c5dbff"/><path d="m472.117188 48.960938v213.277343c0 4.085938-3.324219 7.410157-7.410157 7.410157h-417.414062c-4.085938 0-7.40625-3.324219-7.40625-7.410157v-19.316406h400.058593c4.085938 0 7.40625-3.320313 7.40625-7.40625v-193.964844h17.355469c4.085938 0 7.410157 3.324219 7.410157 7.410157zm0 0" fill="#9ecaff"/><g fill="#3e73b7"><path d="m148.136719 104.777344c2.894531-3.144532 2.691406-8.039063-.453125-10.933594-3.148438-2.894531-8.042969-2.691406-10.9375.453125l-23.699219 25.765625c-2.894531 3.144531-2.691406 8.039062.453125 10.933594 1.488281 1.367187 3.363281 2.042968 5.238281 2.042968 2.089844 0 4.171875-.839843 5.695313-2.496093zm0 0"/><path d="m125.660156 165.234375c2.089844 0 4.171875-.84375 5.699219-2.5l48.730469-52.96875c2.890625-3.144531 2.6875-8.042969-.457032-10.933594-3.144531-2.894531-8.039062-2.691406-10.933593.453125l-48.730469 52.96875c-2.894531 3.144532-2.691406 8.039063.453125 10.933594 1.488281 1.367188 3.367187 2.046875 5.238281 2.046875zm0 0"/></g></svg>