<svg height="512pt" viewBox="-65 0 512 512" width="512pt" xmlns="http://www.w3.org/2000/svg"><path d="m364.53125 463.539062h-347.726562v-448.230468c0-8.453125 6.851562-15.308594 15.308593-15.308594h317.109375c8.453125 0 15.308594 6.855469 15.308594 15.308594zm0 0" fill="#ff4b4c"/><path d="m364.535156 15.304688v448.230468h-347.726562v-39.765625h291.265625c13.675781 0 24.761719-11.085937 24.761719-24.761719v-385.015624c0-7.722657-6.261719-13.992188-13.996094-13.992188h30.378906c8.464844 0 15.316406 6.851562 15.316406 15.304688zm0 0" fill="#fe2b23"/><path d="m373.847656 512h-366.359375c-4.136719 0-7.488281-3.351562-7.488281-7.488281v-37.992188c0-4.136719 3.351562-7.488281 7.488281-7.488281h366.359375c4.136719 0 7.488282 3.351562 7.488282 7.488281v37.992188c0 4.136719-3.351563 7.488281-7.488282 7.488281zm0 0" fill="#9395a3"/><g fill="#c5dbff"><path d="m166.523438 202.878906h-55.8125c-5.269532 0-9.542969-4.273437-9.542969-9.542968v-51.289063c0-5.269531 4.273437-9.542969 9.542969-9.542969h55.8125c5.273437 0 9.546874 4.273438 9.546874 9.542969v51.289063c0 5.269531-4.273437 9.542968-9.546874 9.542968zm0 0"/><path d="m270.632812 202.878906h-55.816406c-5.269531 0-9.542968-4.273437-9.542968-9.542968v-51.289063c0-5.269531 4.273437-9.542969 9.542968-9.542969h55.816406c5.269532 0 9.542969 4.273438 9.542969 9.542969v51.289063c0 5.269531-4.273437 9.542968-9.542969 9.542968zm0 0"/><path d="m166.523438 102.492188h-55.8125c-5.269532 0-9.542969-4.273438-9.542969-9.546876v-51.285156c0-5.273437 4.273437-9.546875 9.542969-9.546875h55.8125c5.273437 0 9.546874 4.277344 9.546874 9.546875v51.285156c0 5.273438-4.273437 9.546876-9.546874 9.546876zm0 0"/><path d="m270.632812 102.492188h-55.816406c-5.269531 0-9.542968-4.273438-9.542968-9.546876v-51.285156c0-5.273437 4.273437-9.546875 9.542968-9.546875h55.816406c5.269532 0 9.542969 4.277344 9.542969 9.546875v51.285156c0 5.273438-4.273437 9.546876-9.542969 9.546876zm0 0"/></g><path d="m176.074219 142.050781v51.285157c0 5.269531-4.273438 9.542968-9.554688 9.542968h-55.808593c-5.273438 0-9.546876-4.273437-9.546876-9.542968v-11.25h42.484376c5.28125 0 9.554687-4.273438 9.554687-9.542969v-40.035157h13.316406c5.28125-.003906 9.554688 4.269532 9.554688 9.542969zm0 0" fill="#9ecaff"/><path d="m280.175781 142.050781v51.285157c0 5.269531-4.273437 9.542968-9.542969 9.542968h-55.808593c-5.285157 0-9.554688-4.273437-9.554688-9.542968v-11.25h42.488281c5.273438 0 9.546876-4.273438 9.546876-9.542969v-40.035157h13.328124c5.269532-.003906 9.542969 4.269532 9.542969 9.542969zm0 0" fill="#9ecaff"/><path d="m176.074219 41.660156v51.285156c0 5.273438-4.273438 9.542969-9.554688 9.542969h-55.808593c-5.273438 0-9.546876-4.269531-9.546876-9.542969v-11.25h42.484376c5.28125 0 9.554687-4.269531 9.554687-9.542968v-40.039063h13.316406c5.28125 0 9.554688 4.273438 9.554688 9.546875zm0 0" fill="#9ecaff"/><path d="m280.175781 41.660156v51.285156c0 5.273438-4.273437 9.542969-9.542969 9.542969h-55.808593c-5.285157 0-9.554688-4.269531-9.554688-9.542969v-11.25h42.488281c5.273438 0 9.546876-4.269531 9.546876-9.542968v-40.039063h13.328124c5.269532 0 9.542969 4.273438 9.542969 9.546875zm0 0" fill="#9ecaff"/><path d="m320.800781 259.714844c0 11.21875-9.09375 20.3125-20.3125 20.3125s-20.3125-9.09375-20.3125-20.3125 9.09375-20.3125 20.3125-20.3125 20.3125 9.09375 20.3125 20.3125zm0 0" fill="#fec608"/></svg>