<svg height="512pt" viewBox="0 -64 512.00049 512" width="512pt" xmlns="http://www.w3.org/2000/svg"><path d="m163.5625 383.046875h-40.609375c-5.191406 0-9.402344-4.210937-9.402344-9.40625v-24.976563h59.414063v24.976563c0 5.195313-4.210938 9.40625-9.402344 9.40625zm0 0" fill="#9395a3"/><path d="m389.042969 383.046875h-40.605469c-5.191406 0-9.402344-4.210937-9.402344-9.40625v-24.976563h59.414063v24.976563c0 5.195313-4.210938 9.40625-9.40625 9.40625zm0 0" fill="#9395a3"/><path d="m172.960938 348.664062v24.980469c0 5.195313-4.203126 9.398438-9.398438 9.398438h-40.609375c-5.195313 0-9.398437-4.203125-9.398437-9.398438v-3.667969h31.976562c5.191406 0 9.398438-4.203124 9.398438-9.398437v-11.914063zm0 0" fill="#7f828f"/><path d="m398.445312 348.664062v24.980469c0 5.195313-4.203124 9.398438-9.398437 9.398438h-40.609375c-5.195312 0-9.398438-4.203125-9.398438-9.398438v-3.667969h31.976563c5.191406 0 9.394531-4.203124 9.394531-9.398437v-11.914063zm0 0" fill="#7f828f"/><path d="m418.085938 69.074219c-42.476563-8.875-109.710938-27.710938-146.089844-62.746094-8.761719-8.4375-23.226563-8.4375-31.992188 0-36.378906 35.035156-103.613281 53.871094-146.089844 62.746094-20.5625 4.296875-33.621093 23.046875-29.496093 42.183593 16.152343 74.921876 14.121093 102.46875 14.121093 102.46875h354.921876s-2.03125-27.546874 14.121093-102.46875c4.125-19.136718-8.933593-37.886718-29.496093-42.183593zm0 0" fill="#a6e165"/><path d="m447.578125 111.257812c-16.144531 74.917969-14.117187 102.464844-14.117187 102.464844h-24.046876c1.277344-15.890625-1.035156-42.671875 7.785157-83.59375 4.125-19.136718-8.933594-37.882812-29.492188-42.179687-42.476562-8.882813-109.714843-27.707031-146.09375-62.746094-4.59375-4.429687-10.757812-6.53125-16.847656-6.304687 5.503906-3.9375 10.625-8.121094 15.238281-12.574219 8.761719-8.429688 23.230469-8.429688 31.988282 0 36.378906 35.039062 103.617187 53.875 146.09375 62.746093 20.558593 4.296876 33.625 23.054688 29.492187 42.1875zm0 0" fill="#72c008"/><path d="m472.769531 162.808594c-19.652343-1.953125-36.941406 9.144531-44.332031 25.644531l-21.433594 53.820313c-3.132812 7.863281-10.738281 13.023437-19.203125 13.023437h-263.601562c-8.464844 0-16.070313-5.160156-19.203125-13.023437l-21.433594-53.820313c-7.390625-16.5-24.679688-27.597656-44.332031-25.644531-20.914063 2.074218-37.546875 19.167968-39.105469 40.125-1.675781 22.527344 13.738281 41.777344 34.617188 46.125 5.472656 1.140625 9.804687 5.308594 10.863281 10.796875l14.664062 75.808593c2.070313 10.695313 11.433594 18.421876 22.328125 18.421876h346.804688c10.894531 0 20.257812-7.722657 22.328125-18.421876l14.664062-75.808593c1.0625-5.488281 5.390625-9.65625 10.863281-10.796875 20.878907-4.347656 36.292969-23.597656 34.617188-46.125-1.558594-20.957032-18.191406-38.050782-39.105469-40.125zm0 0" fill="#72c008"/><path d="m477.257812 249.058594c-5.472656 1.144531-9.800781 5.308594-10.863281 10.800781l-14.664062 75.800781c-2.070313 10.699219-11.4375 18.425782-22.328125 18.425782h-346.804688c-10.789062 0-20.082031-7.582032-22.269531-18.136719 1.535156.332031 3.121094.503906 4.75.503906h346.804687c10.894532 0 20.261719-7.726563 22.332032-18.421875l14.664062-75.804688c1.0625-5.492187 5.390625-9.65625 10.859375-10.800781 20.878907-4.347656 36.296875-23.597656 34.617188-46.125-.464844-6.222656-2.257813-12.121093-5.101563-17.375 12.632813 6.945313 21.507813 19.980469 22.617188 35.007813 1.679687 22.527344-13.734375 41.777344-34.613282 46.125zm0 0" fill="#64a308"/><path d="m239.976562 267.691406h-144.027343c-8.851563 0-16.023438-7.175781-16.023438-16.023437v-34c0-8.851563 7.171875-16.023438 16.023438-16.023438h144.027343c8.851563 0 16.023438 7.171875 16.023438 16.023438v34c0 8.847656-7.171875 16.023437-16.023438 16.023437zm0 0" fill="#fec608"/><path d="m416.054688 267.691406h-144.03125c-8.847657 0-16.023438-7.175781-16.023438-16.023437v-34c0-8.851563 7.175781-16.023438 16.023438-16.023438h144.03125c8.847656 0 16.023437 7.171875 16.023437 16.023438v34c-.003906 8.847656-7.175781 16.023437-16.023437 16.023437zm0 0" fill="#fec608"/><path d="m256.003906 217.667969v33.996093c0 8.855469-7.179687 16.027344-16.023437 16.027344h-144.03125c-8.84375 0-16.027344-7.171875-16.027344-16.027344v-3.148437h137.398437c8.84375 0 16.023438-7.171875 16.023438-16.015625v-30.855469h6.636719c8.84375 0 16.023437 7.171875 16.023437 16.023438zm0 0" fill="#fca630"/><path d="m432.074219 217.667969v33.996093c0 8.855469-7.171875 16.027344-16.023438 16.027344h-144.023437c-8.855469 0-16.023438-7.171875-16.023438-16.027344v-3.148437h137.386719c8.855469 0 16.023437-7.171875 16.023437-16.015625v-30.855469h6.636719c8.851563 0 16.023438 7.171875 16.023438 16.023438zm0 0" fill="#fca630"/><g fill="#72c008"><path d="m184.398438 118.230469c0 5.988281-4.851563 10.839843-10.839844 10.839843-5.984375 0-10.835938-4.851562-10.835938-10.839843 0-5.984375 4.851563-10.835938 10.835938-10.835938 5.988281 0 10.839844 4.851563 10.839844 10.835938zm0 0"/><path d="m266.835938 118.230469c0 5.988281-4.851563 10.839843-10.835938 10.839843s-10.839844-4.851562-10.839844-10.839843c0-5.984375 4.855469-10.835938 10.839844-10.835938s10.835938 4.851563 10.835938 10.835938zm0 0"/><path d="m349.277344 118.230469c0 5.988281-4.851563 10.839843-10.835938 10.839843-5.988281 0-10.839844-4.851562-10.839844-10.839843 0-5.984375 4.851563-10.835938 10.839844-10.835938 5.984375 0 10.835938 4.851563 10.835938 10.835938zm0 0"/><path d="m225.617188 155.792969c0 5.984375-4.851563 10.835937-10.835938 10.835937-5.988281 0-10.839844-4.851562-10.839844-10.835937 0-5.988281 4.851563-10.839844 10.839844-10.839844 5.984375 0 10.835938 4.851563 10.835938 10.839844zm0 0"/><path d="m308.058594 155.792969c0 5.984375-4.851563 10.835937-10.839844 10.835937-5.984375 0-10.835938-4.851562-10.835938-10.835937 0-5.988281 4.851563-10.839844 10.835938-10.839844 5.988281 0 10.839844 4.851563 10.839844 10.839844zm0 0"/></g></svg>