<svg id="Layer_1" enable-background="new 0 0 512 512" height="512" viewBox="0 0 512 512" width="512" xmlns="http://www.w3.org/2000/svg"><g><path d="m379.074 245.394-80.334-80.334c-2.813-2.813-6.628-4.394-10.606-4.394s-7.794 1.58-10.606 4.394l-80.334 80.333c-4.29 4.29-5.573 10.742-3.252 16.347 2.322 5.605 7.792 9.26 13.858 9.26h160.668c6.067 0 11.537-3.655 13.858-9.26s1.038-12.057-3.252-16.346z" fill="#ff823c"/><path d="m382.326 261.74c2.321-5.605 1.038-12.057-3.252-16.347l-80.334-80.333c-2.813-2.813-6.628-4.394-10.606-4.394v110.334h80.334c6.067 0 11.536-3.655 13.858-9.26z" fill="#d26432"/><path d="m497 271h-192.8c-6.067 0-11.536-3.655-13.858-9.26-2.321-5.605-1.038-12.057 3.252-16.347l96.399-96.4c2.813-2.813 6.628-4.394 10.606-4.394s7.794 1.581 10.606 4.394l96.4 96.4c4.29 4.29 5.573 10.742 3.252 16.347s-7.79 9.26-13.857 9.26z" fill="#a54628"/><path d="m497 241s-473.716 0-482 0-15 6.716-15 15v241c0 8.284 6.716 15 15 15h144.6c8.284 0 15-6.716 15-15v-25.875c0-41.472 16.151-80.462 45.479-109.79 23.393-23.398 50.265-50.269 69.4-69.402 3.478 64.784 38.663 105.618 53.986 120.936 41.805 41.814 94.729 94.738 94.729 94.738 2.813 2.813 6.628 4.394 10.606 4.394h48.2c8.284 0 15-6.716 15-15v-241.001c0-8.284-6.716-15-15-15z" fill="#c8ff50"/><path d="m343.464 412.868c41.805 41.814 94.729 94.738 94.729 94.738 2.813 2.813 6.628 4.394 10.606 4.394h48.201c8.284 0 15-6.716 15-15v-241c0-8.284-6.716-15-15-15 0 0-99.972 0-208.866 0v52.277c.445-.445.907-.907 1.345-1.344 3.478 64.783 38.662 105.618 53.985 120.935z" fill="#87e752"/><path d="m79.267 399.533c-8.284 0-15-6.716-15-15v-48.2c0-8.284 6.716-15 15-15s15 6.716 15 15v48.2c0 8.285-6.716 15-15 15z" fill="#d26432"/><path d="m79.267 351.334c-43.781 0-79.267-35.415-79.267-79.267v-16.067c0-43.708 35.559-79.267 79.267-79.267 43.787 0 79.267 35.421 79.267 79.267v16.067c-.001 43.708-35.559 79.267-79.267 79.267z" fill="#87e752"/><path d="m127.467 142.467c-19.037 0-36.983-7.552-50.198-20.7-6.931 3.03-14.463 4.634-22.102 4.634-30.419 0-55.167-24.748-55.167-55.167s24.748-55.167 55.167-55.167c7.641 0 15.173 1.602 22.101 4.628 13.212-13.145 31.159-20.695 50.199-20.695s36.986 7.55 50.2 20.694c6.927-3.026 14.46-4.628 22.1-4.628 30.419 0 55.167 24.748 55.167 55.167s-24.748 55.167-55.167 55.167c-7.638 0-15.172-1.604-22.102-4.634-13.215 13.149-31.162 20.701-50.198 20.701z" fill="#f5f5fa"/><path d="m127.467 142.467v-142.467c19.04 0 36.986 7.55 50.2 20.694 6.927-3.026 14.46-4.628 22.1-4.628 30.419 0 55.167 24.748 55.167 55.167s-24.748 55.167-55.167 55.167c-7.638 0-15.172-1.604-22.102-4.634-13.215 13.149-31.162 20.701-50.198 20.701z" fill="#e1e1eb"/><path d="m448.8 512h-289.2c-8.284 0-15-6.716-15-15v-25.875c0-45.112 16.772-93.509 54.265-131.002 41.805-41.813 94.73-94.73 94.73-94.73 4.289-4.291 10.74-5.573 16.347-3.25 5.604 2.322 9.259 7.791 9.259 13.858v25.875c0 41.474 16.15 80.461 45.477 109.78 41.807 41.815 94.729 94.738 94.729 94.739 4.29 4.29 5.573 10.742 3.252 16.347-2.323 5.603-7.792 9.258-13.859 9.258z" fill="#2de1fd"/><path d="m462.658 502.74c2.321-5.605 1.038-12.057-3.252-16.347 0 0-52.923-52.923-94.729-94.739-29.326-29.318-45.477-68.306-45.477-109.78v-25.874c0-6.067-3.654-11.536-9.259-13.858-5.606-2.323-12.058-1.04-16.347 3.25 0 0-1.978 1.978-5.461 5.46v261.148h160.667c6.067 0 11.536-3.655 13.858-9.26z" fill="#17bcfe"/><path d="m79.267 351.334v-174.6c43.787 0 79.267 35.421 79.267 79.267v16.067c-.001 43.707-35.559 79.266-79.267 79.266z" fill="#4ec95f"/></g></svg>