<svg id="Layer_1" enable-background="new 0 0 512 512" height="512" viewBox="0 0 512 512" width="512" xmlns="http://www.w3.org/2000/svg"><g><path d="m288.134 222.8h-64.268c-8.284 0-15-6.716-15-15v-65.333h-17.133c-25.989 0-47.134-21.144-47.134-47.133 0-26.033 21.05-47.133 47.134-47.133h2.863c6.751-27.636 31.713-48.201 61.387-48.201 29.696 0 54.667 20.568 61.418 48.2h2.865c26.03 0 47.134 21.05 47.134 47.133 0 25.989-21.145 47.133-47.134 47.133h-17.133v65.334c.001 8.284-6.715 15-14.999 15z" fill="#e1e1eb"/><path d="m303.134 207.8v-65.333h17.133c25.989 0 47.134-21.144 47.134-47.133 0-26.084-21.103-47.133-47.134-47.133h-2.865c-6.752-27.633-31.722-48.201-61.419-48.201v222.8h32.15c8.285 0 15.001-6.716 15.001-15z" fill="#cdcddc"/><path d="m256 335.267c-3.839 0-7.678-1.464-10.606-4.394l-43.807-43.806h-25.92c-5.198 0-10.026-2.692-12.76-7.114-2.733-4.422-2.981-9.944-.656-14.594l32.133-64.267c2.54-5.082 7.734-8.292 13.416-8.292h96.4c5.682 0 10.876 3.21 13.416 8.292l32.133 64.267c2.325 4.65 2.077 10.172-.656 14.594s-7.562 7.114-12.76 7.114h-25.92l-43.807 43.806c-2.928 2.929-6.767 4.394-10.606 4.394z" fill="#dc2663"/><path d="m266.606 330.873 43.807-43.806h25.92c5.198 0 10.026-2.692 12.76-7.114 2.733-4.422 2.981-9.944.656-14.594l-32.133-64.267c-2.54-5.082-7.734-8.292-13.416-8.292h-48.217v142.466c.006 0 .011.001.017.001 3.839 0 7.678-1.465 10.606-4.394z" fill="#c1126b"/><path d="m465.456 497c7.434 0 12.269-7.823 8.944-14.472l-108.584-217.169c-2.54-5.082-7.734-8.292-13.416-8.292h-48.2c-3.979 0-7.794 1.58-10.606 4.393l-37.594 37.594-37.594-37.594c-2.813-2.813-6.628-4.393-10.606-4.393h-48.2c-5.682 0-10.876 3.21-13.416 8.292l-108.584 217.169c-3.325 6.649 1.51 14.472 8.944 14.472z" fill="#a54628"/><path d="m474.4 482.528-108.584-217.169c-2.54-5.082-7.734-8.292-13.416-8.292h-48.2c-3.979 0-7.794 1.58-10.606 4.393l-37.594 37.594-.017-.017v197.963h209.473c7.434 0 12.269-7.823 8.944-14.472z" fill="#78281e"/><g clip-rule="evenodd" fill-rule="evenodd"><circle cx="47.133" cy="95.333" fill="#ff5c5c" r="15"/><circle cx="464.867" cy="95.333" fill="#dc2663" r="15"/><circle cx="384.533" cy="175.667" fill="#dc2663" r="15"/><circle cx="127.467" cy="175.667" fill="#ff5c5c" r="15"/></g><path d="m176.37 497 44.846-89.692c3.705-7.41.702-16.419-6.708-20.125-7.409-3.705-16.42-.701-20.124 6.708l-51.554 103.109z" fill="#d26432"/><path d="m317.616 393.892c-3.704-7.41-12.714-10.415-20.124-6.708-7.41 3.705-10.413 12.715-6.708 20.125l44.846 89.691h33.54z" fill="#a54628"/><path d="m497 512h-482c-8.284 0-15-6.716-15-15s6.716-15 15-15h482c8.284 0 15 6.716 15 15s-6.716 15-15 15z" fill="#ff823c"/><path d="m497 482h-241.017v30h241.017c8.284 0 15-6.716 15-15s-6.716-15-15-15z" fill="#d26432"/></g></svg>