<svg id="Layer_1" enable-background="new 0 0 512 512" height="512" viewBox="0 0 512 512" width="512" xmlns="http://www.w3.org/2000/svg"><g><path d="m349.962 60c-2.275 0-4.092 1.893-3.997 4.166.698 16.653 3.153 79.962 2.376 130.23-1.12 72.436-101.267 152.632-156.626 162.149s-108.718 14.432-121.39 15.402c-12.673.971-54.692 0-54.692 0s-15.633.8-15.633 24.794 12.297 32.564 39.644 32.222 50.357 6.341 69.533 15.082 115.888 12.283 175.471-2.799 92.932 18.282 166.745 9.141c73.812-9.141 63.564-44.244 53.803-79.844-22.327-81.426-14.644-122.234-14.754-162.802-.122-44.904 1.403-124.795 1.777-143.667.044-2.24-1.759-4.075-3.999-4.075h-138.258z" fill="#fdba91"/><g><path d="m505.195 370.543c-22.327-81.426-14.644-122.234-14.755-162.802-.122-44.904 1.402-124.795 1.777-143.667.044-2.24-1.759-4.075-3.999-4.075h-26.824s-1.999 96.58-1.859 147.741c.111 40.568-7.572 81.376 14.755 162.802 9.761 35.599 20.009 70.703-53.803 79.843-3.501.434-6.91.771-10.237 1.023 12.381.937 25.897.865 41.142-1.023 73.812-9.139 63.564-44.242 53.803-79.842z" fill="#fc997d"/></g><path d="m440.778 245.871c-4.136-.313-7.73 2.743-8.045 6.874-.006.061-.637 6.136-5.226 12.327-6.137 8.279-16.351 13.066-30.359 14.228-4.128.342-7.196 3.966-6.854 8.094.325 3.917 3.604 6.881 7.466 6.881.208 0 .418-.009.629-.026 36.8-3.051 48.337-27.691 49.296-40.294.314-4.13-2.777-7.769-6.907-8.084z" fill="#eb866c"/></g></svg>