<?xml version="1.0" encoding="UTF-8"?>
<!DOCTYPE svg PUBLIC "-//W3C//DTD SVG 1.1//EN" "http://www.w3.org/Graphics/SVG/1.1/DTD/svg11.dtd">
<!-- Creator: CorelDRAW 2019 (64-Bit) -->
<svg xmlns="http://www.w3.org/2000/svg" xml:space="preserve" width="2480px" height="3508px" version="1.1" style="shape-rendering:geometricPrecision; text-rendering:geometricPrecision; image-rendering:optimizeQuality; fill-rule:evenodd; clip-rule:evenodd"
viewBox="0 0 2480 3507.43"
 xmlns:xlink="http://www.w3.org/1999/xlink">
 <defs>
  <style type="text/css">
   <![CDATA[
    .fil6 {fill:#009444}
    .fil0 {fill:#00C0F3}
    .fil7 {fill:#552419}
    .fil3 {fill:#562617}
    .fil4 {fill:#8DC63F}
    .fil2 {fill:#F58A74}
    .fil1 {fill:#F8AA97}
    .fil5 {fill:white}
   ]]>
  </style>
 </defs>
 <g id="Слой_x0020_1">
  <metadata id="CorelCorpID_0Corel-Layer"/>
  <path class="fil0" d="M1440.76 1618.58l0 0 249.96 0c0,-48.12 -39.05,-86.87 -86.86,-86.87l-76.24 0c-47.81,0 -86.86,39.06 -86.86,86.87zm249.96 0l0 0z"/>
  <g id="_2496582399856">
   <path class="fil1" d="M1736.66 1383.6c0,15.88 -12.88,28.75 -28.75,28.75 -15.87,0 -28.75,-12.87 -28.75,-28.75 0,-15.87 12.88,-28.74 28.75,-28.74 15.87,0 28.75,12.87 28.75,28.74l0 0z"/>
   <path class="fil2" d="M1724.78 1383.6c0,9.32 -7.55,16.88 -16.87,16.88 -9.32,0 -16.87,-7.56 -16.87,-16.88 0,-9.31 7.55,-16.87 16.87,-16.87 9.32,0 16.87,7.56 16.87,16.87l0 0z"/>
  </g>
  <path class="fil1" d="M1452.63 1383.6c0,15.88 -12.87,28.75 -28.75,28.75 -15.87,0 -28.74,-12.87 -28.74,-28.75 0,-15.87 12.87,-28.74 28.74,-28.74 15.88,0 28.75,12.87 28.75,28.74z"/>
  <path class="fil2" d="M1440.76 1383.6c0,9.32 -7.56,16.88 -16.88,16.88 -9.32,0 -16.87,-7.56 -16.87,-16.88 0,-9.31 7.55,-16.87 16.87,-16.87 9.32,0 16.88,7.56 16.88,16.87z"/>
  <path class="fil1" d="M1528.87 1417.35l0 120.92c0,20.31 16.56,37.19 37.18,37.19l0 0c20.31,0 37.18,-16.57 37.18,-37.19l0 -120.92 -74.36 0z"/>
  <path class="fil2" d="M1528.87 1511.71c0,20.31 16.25,37.5 36.56,37.81 0,0 0.31,0 0.31,0l0 0c0,0 0.31,0 0.31,0 20.31,0 36.56,-17.18 36.56,-37.81l0 -48.74 -74.05 0 0 48.74 0.31 0z"/>
  <path class="fil1" d="M1437.32 1362.67l0 38.74c0,70.93 57.49,128.74 128.73,128.74l0 0c70.93,0 128.74,-57.49 128.74,-128.73l0 -38.75c0,-66.72 -50.89,-121.83 -116.23,-128.13l-25.03 0c-65.33,6.31 -116.21,61.41 -116.21,128.13z"/>
  <path class="fil3" d="M1524.49 1369.23c0,6.56 -5.31,11.87 -11.87,11.87 -6.55,0 -11.87,-5.31 -11.87,-11.87 0,-6.56 5.32,-11.87 11.87,-11.87 6.56,0 11.87,5.31 11.87,11.87z"/>
  <path class="fil3" d="M1631.04 1369.23c0,6.56 -5.31,11.87 -11.87,11.87 -6.56,0 -11.87,-5.31 -11.87,-11.87 0,-6.56 5.31,-11.87 11.87,-11.87 6.56,0 11.87,5.31 11.87,11.87z"/>
  <path class="fil4" d="M1571.68 1410.16l-11.25 0c-20.63,0 -37.18,16.57 -37.18,37.19l0 0c0,20.62 16.56,37.18 37.18,37.18l11.25 0c20.62,0 37.18,-16.56 37.18,-37.18l0 0c-0.31,-20.62 -16.87,-37.19 -37.18,-37.19z"/>
  <path class="fil5" d="M1566.05 1484.22c-5.31,0 -10.62,-2.19 -14.37,-5.94 -3.75,-3.75 -5.94,-9.06 -5.94,-14.37 0,-5.31 2.19,-10.63 5.94,-14.38l5.94 5.94c-2.19,2.19 -3.44,5.31 -3.44,8.75 0,3.12 1.25,6.25 3.44,8.75 2.18,2.18 5.31,3.43 8.74,3.43 3.44,0 6.25,-1.25 8.75,-3.43 2.19,-2.19 3.44,-5.31 3.44,-8.75 0,-3.13 -1.25,-6.25 -3.44,-8.75l5.94 -5.94c3.75,3.75 5.94,9.07 5.94,14.38 0,5.31 -2.19,10.62 -5.94,14.37 -4.37,3.75 -9.69,5.94 -15,5.94z"/>
  <path class="fil6" d="M1568.24 1431.72l-4.69 0c-8.75,0 -15.62,7.19 -15.62,15.63l0 0c0,8.75 7.19,15.62 15.62,15.62l4.69 0c8.75,0 15.62,-7.19 15.62,-15.62l0 0c0.32,-8.75 -6.87,-15.63 -15.62,-15.63z"/>
  <path class="fil7" d="M1520.12 1270.49c0,0 -5.62,23.44 30.31,42.19 0,0 3.12,-26.88 -30.31,-42.19z"/>
  <path class="fil7" d="M1550.74 1270.49c0,0 -5.62,23.44 30.31,42.19 0.31,0 3.44,-26.88 -30.31,-42.19z"/>
  <path class="fil7" d="M1581.68 1270.49c0,0 -5.63,23.44 30.3,42.19 0,0 3.13,-26.88 -30.3,-42.19z"/>
 </g>
</svg>
