<?xml version="1.0" encoding="iso-8859-1"?>
<!-- Generator: Adobe Illustrator 19.0.0, SVG Export Plug-In . SVG Version: 6.00 Build 0)  -->
<svg version="1.1" id="Layer_1" xmlns="http://www.w3.org/2000/svg" xmlns:xlink="http://www.w3.org/1999/xlink" x="0px" y="0px"
	 viewBox="0 0 501.6 501.6" style="enable-background:new 0 0 501.6 501.6;" xml:space="preserve">
<path style="fill:#F75959;" d="M412.4,228c0,138.4-72,273.6-161.6,273.6C162,501.6,89.2,358.4,89.2,220S161.2,0,250.8,0
	C339.6,0.8,412.4,89.6,412.4,228z"/>
<path style="fill:#E23939;" d="M250.8,0.8c88.8,0,161.6,88.8,161.6,227.2s-72,273.6-161.6,273.6"/>
<path style="fill:#CE2828;" d="M356.4,137.6c0,58.4-47.2,124.8-105.6,124.8S145.2,196,145.2,137.6S192.4,32,250.8,32
	S356.4,79.2,356.4,137.6z"/>
<path style="fill:#FFC3A9;" d="M356.4,137.6c0,58.4-47.2,81.6-105.6,81.6S145.2,196,145.2,137.6S192.4,32,250.8,32
	S356.4,79.2,356.4,137.6z"/>
<path style="fill:#F2AF97;" d="M251.6,31.2c58.4,0,105.6,47.2,105.6,105.6s-47.2,81.6-105.6,81.6"/>
<g>
	<path style="fill:#00233F;" d="M209.2,66.4c-7.2,0.8-12.8,3.2-12,7.2l25.6-1.6C222,68.8,216.4,66.4,209.2,66.4z"/>
	<path style="fill:#00233F;" d="M292.4,66.4c7.2,0.8,12.8,3.2,12,7.2L278.8,72C279.6,68.8,285.2,66.4,292.4,66.4z"/>
</g>
<g>
	<path style="fill:#FCD4C5;" d="M204.4,122.4c-16.8,0-30.4,4-30.4,8.8s13.6,2.4,30.4,2.4s30.4,2.4,30.4-2.4
		C234.8,126.4,221.2,122.4,204.4,122.4z"/>
	<path style="fill:#FCD4C5;" d="M297.2,122.4c-16.8,0-30.4,4-30.4,8.8s13.6,2.4,30.4,2.4s30.4,2.4,30.4-2.4
		C326.8,126.4,314,122.4,297.2,122.4z"/>
</g>
<g>
	<path style="fill:#E59177;" d="M223.6,116c0,6.4-5.6,12-12,12s-12-5.6-12-12s5.6-12,12-12S223.6,109.6,223.6,116z"/>
	<path style="fill:#E59177;" d="M303.6,116c0,6.4-5.6,12-12,12c-6.4,0-12-5.6-12-12s5.6-12,12-12C298.8,104,303.6,109.6,303.6,116z"
		/>
</g>
<path style="fill:#1E4784;" d="M223.6,112.8c0,6.4-5.6,12-12,12s-12-5.6-12-12s5.6-12,12-12C218,100.8,223.6,105.6,223.6,112.8z"/>
<path style="fill:#00233F;" d="M211.6,100.8c7.2,0,12,5.6,12,12s-5.6,12-12,12"/>
<path style="fill:#1E4784;" d="M303.6,112.8c0,6.4-5.6,12-12,12c-6.4,0-12-5.6-12-12s5.6-12,12-12
	C298.8,100.8,303.6,105.6,303.6,112.8z"/>
<path style="fill:#00233F;" d="M291.6,100.8c7.2,0,12,5.6,12,12s-5.6,12-12,12"/>
<path style="fill:#DB917B;" d="M261.2,176.8c0,11.2-4.8,21.6-10.4,21.6c-5.6,0-10.4-9.6-10.4-21.6s4.8-20.8,10.4-20.8
	C256.4,156,261.2,165.6,261.2,176.8z"/>
<path style="fill:#A51339;" d="M261.2,176.8c0,11.2-4.8,12.8-10.4,12.8c-5.6,0-10.4-1.6-10.4-12.8s4.8-20.8,10.4-20.8
	C256.4,156,261.2,165.6,261.2,176.8z"/>
<path style="fill:#820C30;" d="M240.4,176.8c0-11.2,4.8-20.8,10.4-20.8c5.6,0,10.4,9.6,10.4,20.8"/>
<circle style="fill:#12D6BF;" cx="250.8" cy="172.8" r="14.4"/>
<path style="fill:#02B5B0;" d="M250.8,157.6c8,0,14.4,6.4,14.4,14.4s-6.4,15.2-14.4,15.2"/>
<circle style="fill:#12D6BF;" cx="250.8" cy="172.8" r="8"/>
<path style="fill:#02B5B0;" d="M242.8,172.8c0-4,3.2-8,8-8c4,0,8,3.2,8,8"/>
<path style="fill:#1398D3;" d="M270,182.4c4.8,5.6,1.6,6.4-0.8,8.8c-2.4,2.4-3.2,5.6-8.8,0c-4.8-5.6-12.8-17.6-10.4-20
	C253.2,168.8,265.2,176.8,270,182.4z"/>
<path style="fill:#036E93;" d="M250.8,171.2c2.4-2.4,14.4,5.6,19.2,11.2c4.8,5.6,1.6,6.4-0.8,8.8"/>
<path style="fill:#1E4784;" d="M290.8,40c0,8.8-17.6,8-40,8s-40,0.8-40-8s17.6-16,40-16S290.8,32,290.8,40z"/>
<path style="fill:#00233F;" d="M290.8,40c0,8.8-17.6,8-40,8s-40,0.8-40-8"/>
<path style="fill:#1E4784;" d="M263.6,25.6c-12-1.6-20.8-10.4-19.2-20c0-1.6,0.8-2.4,0.8-4c-5.6,2.4-8.8,7.2-9.6,13.6
	c-1.6,9.6,5.6,17.6,14.4,19.2c7.2,0.8,13.6-2.4,16.8-8C266,25.6,265.2,25.6,263.6,25.6z"/>
<path style="fill:#F75959;" d="M306,346.4c0,62.4-39.2,133.6-59.2,133.6c-20,0-28-66.4-28-128.8s9.6-100,29.6-100
	C268.4,250.4,306,284,306,346.4z"/>
<path style="fill:#CE2828;" d="M254.8,237.6c-8.8,0-46.4-7.2-52.8,8.8c16,16,48.8,17.6,79.2,84.8c24,52-16,133.6-34.4,148.8
	c1.6,0.8-2.4,0,0,0c20,0,65.6-72,65.6-134.4C311.6,282.4,274.8,237.6,254.8,237.6z"/>
<g>
	
		<ellipse transform="matrix(-0.3584 -0.9336 0.9336 -0.3584 -122.4964 626.29)" style="fill:#FC8D8D;" cx="153.965" cy="355.239" rx="108.803" ry="26.401"/>
	<circle style="fill:#FC8D8D;" cx="118" cy="219.2" r="13.6"/>
	<circle style="fill:#FC8D8D;" cx="115.6" cy="173.6" r="8.8"/>
</g>
<g>
</g>
<g>
</g>
<g>
</g>
<g>
</g>
<g>
</g>
<g>
</g>
<g>
</g>
<g>
</g>
<g>
</g>
<g>
</g>
<g>
</g>
<g>
</g>
<g>
</g>
<g>
</g>
<g>
</g>
</svg>
