<?xml version="1.0" encoding="UTF-8"?>
<!DOCTYPE svg PUBLIC "-//W3C//DTD SVG 1.1//EN" "http://www.w3.org/Graphics/SVG/1.1/DTD/svg11.dtd">
<!-- Creator: CorelDRAW 2019 (64-Bit) -->
<svg xmlns="http://www.w3.org/2000/svg" xml:space="preserve" width="2480px" height="3508px" version="1.1" style="shape-rendering:geometricPrecision; text-rendering:geometricPrecision; image-rendering:optimizeQuality; fill-rule:evenodd; clip-rule:evenodd"
viewBox="0 0 2480 3507.43"
 xmlns:xlink="http://www.w3.org/1999/xlink">
 <defs>
  <style type="text/css">
   <![CDATA[
    .fil6 {fill:#552419}
    .fil4 {fill:#562617}
    .fil2 {fill:#F58A74}
    .fil1 {fill:#F8AA97}
    .fil3 {fill:#FAA62C}
    .fil0 {fill:#FFC62D}
    .fil5 {fill:white}
   ]]>
  </style>
 </defs>
 <g id="Слой_x0020_1">
  <metadata id="CorelCorpID_0Corel-Layer"/>
  <g id="_2496630482768">
   <g>
    <path class="fil0" d="M732.41 1618.58l0 0 363.39 0c0,-59.06 -47.81,-106.87 -106.86,-106.87l-149.67 0c-59.05,0 -106.86,47.81 -106.86,106.87zm363.39 0l0 0z"/>
    <g>
     <g>
      <path class="fil1" d="M1095.8 1315.18c0,21.91 -17.77,39.68 -39.68,39.68 -21.91,0 -39.68,-17.77 -39.68,-39.68 0,-21.92 17.77,-39.69 39.68,-39.69 21.91,0 39.68,17.77 39.68,39.69l0 0z"/>
      <path class="fil2" d="M1079.55 1315.18c0,12.94 -10.49,23.43 -23.43,23.43 -12.94,0 -23.44,-10.49 -23.44,-23.43 0,-12.94 10.5,-23.44 23.44,-23.44 12.94,0 23.43,10.5 23.43,23.44l0 0z"/>
     </g>
     <g>
      <path class="fil1" d="M811.77 1315.18c0,21.91 -17.77,39.68 -39.68,39.68 -21.91,0 -39.68,-17.77 -39.68,-39.68 0,-21.92 17.77,-39.69 39.68,-39.69 21.91,0 39.68,17.77 39.68,39.69z"/>
      <path class="fil2" d="M795.52 1315.18c0.01,12.94 -10.49,23.43 -23.43,23.43 -12.94,0 -23.43,-10.49 -23.43,-23.43 0,-12.94 10.49,-23.44 23.43,-23.44 12.94,0 23.44,10.5 23.44,23.44l-0.01 0z"/>
     </g>
    </g>
    <path class="fil3" d="M913.95 1574.83c31.56,0 56.86,-25.62 56.86,-56.87l0 -6.25 -114.04 0 0 6.25c0.31,31.25 25.93,56.87 57.18,56.87z"/>
    <path class="fil1" d="M877.08 1397.04l0 120.92c0,20.31 16.56,37.19 37.18,37.19l0 0c20.31,0 37.18,-16.57 37.18,-37.19l0 -120.92 -74.36 0z"/>
    <path class="fil2" d="M877.08 1457.35c0,20.31 16.24,37.49 36.55,37.8 0,0 0.32,0 0.32,0l0 0c0,0 0.31,0 0.31,0 20.31,0 36.56,-17.18 36.56,-37.8l0 -48.75 -74.05 0 0 48.75 0.31 0z"/>
    <path class="fil1" d="M785.21 1206.44l0 126.86c0,70.93 57.5,128.73 128.74,128.73l0 0c70.93,0 128.73,-57.49 128.73,-128.73l0 -126.86c0,-47.81 -38.74,-86.55 -86.55,-86.55l-84.36 0c-47.81,0 -86.56,38.74 -86.56,86.55z"/>
    <g>
     <path class="fil4" d="M860.2 1275.49c0.01,8.46 -6.85,15.31 -15.31,15.31 -8.45,0 -15.31,-6.85 -15.31,-15.31 0,-8.45 6.86,-15.31 15.31,-15.31 8.46,0 15.32,6.86 15.32,15.31l-0.01 0z"/>
     <path class="fil4" d="M998.31 1275.49c0,8.46 -6.85,15.31 -15.31,15.31 -8.45,0 -15.31,-6.85 -15.31,-15.31 0,-8.45 6.86,-15.31 15.31,-15.31 8.46,0 15.31,6.86 15.31,15.31l0 0z"/>
    </g>
    <path class="fil5" d="M867.39 1345.49c0,1.56 0,3.12 0,4.68 0,25 20.94,46.25 46.56,46.56l0 0c25.62,-0.31 46.55,-21.56 46.55,-46.56 0,-1.56 0,-3.12 0,-4.68 -30.62,-4.69 -62.18,-4.69 -93.11,0z"/>
   </g>
   <path class="fil6" d="M1052.37 1171.13c-21.87,-74.68 -98.74,-91.55 -138.11,-91.55 -39.37,0 -116.55,16.56 -138.42,91.55 -21.87,74.99 9.69,106.86 9.69,106.86 0,0 36.24,-40.3 36.24,-108.42 0,0 38.75,10 92.49,10 53.74,0 92.18,-10 92.18,-10 0,68.12 36.24,108.42 36.24,108.42 0,0 31.56,-32.18 9.69,-106.86z"/>
  </g>
 </g>
</svg>
