<?xml version="1.0" encoding="UTF-8"?>
<!DOCTYPE svg PUBLIC "-//W3C//DTD SVG 1.1//EN" "http://www.w3.org/Graphics/SVG/1.1/DTD/svg11.dtd">
<!-- Creator: CorelDRAW 2019 (64-Bit) -->
<svg xmlns="http://www.w3.org/2000/svg" xml:space="preserve" width="2480px" height="3508px" version="1.1" style="shape-rendering:geometricPrecision; text-rendering:geometricPrecision; image-rendering:optimizeQuality; fill-rule:evenodd; clip-rule:evenodd"
viewBox="0 0 2480 3507.43"
 xmlns:xlink="http://www.w3.org/1999/xlink">
 <defs>
  <style type="text/css">
   <![CDATA[
    .fil8 {fill:#552419}
    .fil6 {fill:#562617}
    .fil0 {fill:#594A42}
    .fil4 {fill:#726658}
    .fil9 {fill:#9B8579}
    .fil5 {fill:#E19B8A}
    .fil2 {fill:#F58A74}
    .fil1 {fill:#F8AA97}
    .fil3 {fill:#FFC62D}
    .fil7 {fill:white}
   ]]>
  </style>
 </defs>
 <g id="Слой_x0020_1">
  <metadata id="CorelCorpID_0Corel-Layer"/>
  <path class="fil0" d="M2035.99 1618.58l0 0 362.37 0 0 -14.78c-7.18,-52.05 -51.8,-92.09 -105.84,-92.09l-149.67 0c-58.74,0 -106.86,47.81 -106.86,106.87z"/>
  <g id="_2496636966384">
   <path class="fil1" d="M2398.36 1325.4c-4.51,16.96 -19.97,29.46 -38.35,29.46 -21.91,0 -39.68,-17.77 -39.68,-39.68 0,-21.92 17.77,-39.69 39.68,-39.69 18.38,0 33.84,12.51 38.35,29.46l0 20.45z"/>
   <path class="fil2" d="M2383.45 1315.18c0,12.94 -10.5,23.43 -23.44,23.43 -12.94,0 -23.43,-10.49 -23.43,-23.43 0,-12.94 10.49,-23.44 23.43,-23.44 12.94,0 23.44,10.5 23.44,23.44z"/>
  </g>
  <path class="fil1" d="M2115.36 1315.18c0,21.91 -17.77,39.68 -39.69,39.68 -21.91,0 -39.68,-17.77 -39.68,-39.68 0,-21.92 17.77,-39.69 39.68,-39.69 21.92,0 39.69,17.77 39.69,39.69z"/>
  <path class="fil2" d="M2099.11 1315.18c0,12.94 -10.49,23.43 -23.44,23.43 -12.94,0 -23.43,-10.49 -23.43,-23.43 0,-12.94 10.49,-23.44 23.43,-23.44 12.95,0 23.44,10.5 23.44,23.44z"/>
  <polygon class="fil3" points="2160.98,1511.71 2275.02,1511.71 2275.02,1618.58 2160.98,1618.58 "/>
  <path class="fil4" d="M2217.85 1574.83c31.55,0 56.86,-25.62 56.86,-56.87l0 -6.25 -114.05 0 0 6.25c0.32,31.25 25.63,56.87 57.19,56.87z"/>
  <path class="fil1" d="M2180.66 1397.04l0 120.92c0,20.31 16.56,37.19 37.18,37.19l0 0c20.31,0 37.19,-16.57 37.19,-37.19l0 -120.92 -74.37 0z"/>
  <path class="fil2" d="M2180.66 1457.35c0,20.31 16.25,37.49 36.56,37.8 0,0 0.31,0 0.31,0l0 0c0,0 0.32,0 0.32,0 20.31,0 36.55,-17.18 36.55,-37.8l0 -48.75 -73.74 0 0 48.75z"/>
  <path class="fil1" d="M2089.11 1206.44l0 126.86c0,70.93 57.49,128.73 128.73,128.73l0.01 0c70.92,0 128.73,-57.49 128.73,-128.73l0 -126.86c0,-47.81 -38.75,-86.55 -86.55,-86.55l-84.37 0c-47.8,0 -86.55,38.74 -86.55,86.55z"/>
  <path class="fil5" d="M2346.58 1277.99c0,0 0,34.69 -10.94,67.5 -5,14.37 -23.12,19.06 -34.37,9.06 -18.12,-16.56 -44.99,-30.31 -83.11,-30.31 -38.12,0 -64.68,13.75 -83.12,30.31 -11.24,10.31 -29.68,5.62 -34.37,-9.06 -11.25,-32.81 -10.93,-67.5 -10.93,-67.5 0,0 0,0 0,0.32l0 52.49c0,72.18 59.05,132.48 131.23,131.23 69.99,-1.25 126.24,-58.43 126.24,-128.73l-0.63 -55.31c0,0 0,0 0,0z"/>
  <path class="fil6" d="M2164.1 1275.49c0,8.46 -6.85,15.31 -15.31,15.31 -8.45,0 -15.31,-6.85 -15.31,-15.31 0,-8.45 6.86,-15.31 15.31,-15.31 8.46,0 15.31,6.86 15.31,15.31l0 0z"/>
  <path class="fil6" d="M2302.21 1275.49c0,8.46 -6.86,15.31 -15.31,15.31 -8.46,0 -15.31,-6.85 -15.31,-15.31 0,-8.45 6.85,-15.31 15.31,-15.31 8.45,0 15.31,6.86 15.31,15.31z"/>
  <path class="fil7" d="M2171.29 1345.49c0,1.56 0,3.12 0,4.68 0,25 20.93,46.25 46.56,46.56l0 0c25.62,-0.31 46.55,-21.56 46.55,-46.56 0,-1.56 0,-3.12 0,-4.68 -30.93,-4.69 -62.18,-4.69 -93.11,0z"/>
  <path class="fil8" d="M2353.76 1119.89c0,0 20.31,-30.62 5.94,-40.31 -14.37,-9.68 -52.81,4.69 -52.81,4.69 0,0 14.38,-20.31 -4.99,-29.37 -19.38,-9.06 -64.68,24.37 -64.68,24.37 0,0 14.37,-17.81 -8.44,-23.75 -22.81,-5.93 -140.3,31.25 -153.42,101.87 -11.87,63.42 13.13,120.29 13.13,120.29l0.31 0c0,0 36.24,-40.31 36.24,-108.42 0,0 38.75,10 92.49,10 53.75,0 92.18,-10 92.18,-10 0,68.11 36.24,108.42 36.24,108.42l0 0c53.75,-116.55 7.81,-157.79 7.81,-157.79z"/>
  <path class="fil9" d="M2274.71 1618.58l0 -106.87 -20 0 0 -54.37c0,0 61.87,3.13 87.49,66.56l-40.3 94.67 -27.19 0.01z"/>
  <path class="fil9" d="M2160.98 1618.58l0 -106.87 19.99 0 0 -54.37c0,0 -61.86,3.13 -87.48,66.56l40.3 94.67 27.19 0.01z"/>
 </g>
</svg>
