<?xml version="1.0" encoding="UTF-8"?>
<!DOCTYPE svg PUBLIC "-//W3C//DTD SVG 1.1//EN" "http://www.w3.org/Graphics/SVG/1.1/DTD/svg11.dtd">
<!-- Creator: CorelDRAW 2019 (64-Bit) -->
<svg xmlns="http://www.w3.org/2000/svg" xml:space="preserve" width="2480px" height="3508px" version="1.1" style="shape-rendering:geometricPrecision; text-rendering:geometricPrecision; image-rendering:optimizeQuality; fill-rule:evenodd; clip-rule:evenodd"
viewBox="0 0 2480 3507.43"
 xmlns:xlink="http://www.w3.org/1999/xlink">
 <defs>
  <style type="text/css">
   <![CDATA[
    .fil5 {fill:#562617}
    .fil6 {fill:#E6E7E8}
    .fil0 {fill:#F15A29}
    .fil2 {fill:#F58A74}
    .fil3 {fill:#F7941E}
    .fil1 {fill:#F8AA97}
    .fil7 {fill:#FABEAF}
    .fil4 {fill:white}
   ]]>
  </style>
 </defs>
 <g id="Слой_x0020_1">
  <metadata id="CorelCorpID_0Corel-Layer"/>
  <path class="fil0" d="M732.41 2453.78l0 0 363.39 0c0,-59.05 -47.81,-106.86 -106.86,-106.86l-149.67 0c-59.05,0 -106.86,47.81 -106.86,106.86zm363.39 0l0 0z"/>
  <polygon class="fil1" points="877.08,2231.62 877.08,2327.55 913.95,2373.79 951.13,2327.55 951.13,2231.62 "/>
  <path class="fil2" d="M877.08 2292.55c0,20.31 16.24,37.5 36.55,37.81 0,0 0.32,0 0.32,0l0 0c0,0 0.31,0 0.31,0 20.31,0 36.56,-17.18 36.56,-37.81l0 -48.74 -74.05 0 0 48.74 0.31 0z"/>
  <polygon class="fil3" points="913.95,2373.79 877.08,2327.55 853.95,2346.92 873.64,2412.22 893.01,2366.92 "/>
  <polygon class="fil3" points="913.95,2373.79 951.13,2327.55 973.94,2346.92 954.26,2412.22 934.88,2366.92 "/>
  <path class="fil4" d="M921.45 2392.85c0,4.14 -3.36,7.5 -7.5,7.5 -4.14,0 -7.5,-3.36 -7.5,-7.5 0,-4.14 3.36,-7.5 7.5,-7.5 4.14,0 7.5,3.36 7.5,7.5l0 0z"/>
  <path class="fil4" d="M921.45 2440.35c0,-0.01 0,-0.01 0,-0.01 0,4.15 -3.36,7.5 -7.5,7.5 -4.14,0 -7.5,-3.35 -7.5,-7.5 0,0 0,0 0,0 0,-4.14 3.36,-7.49 7.5,-7.49 4.14,0 7.5,3.35 7.5,7.49l0 0.01z"/>
  <g id="_2496699822608">
   <g>
    <path class="fil1" d="M1095.8 2150.38c0,21.91 -17.77,39.68 -39.68,39.68 -21.91,0 -39.68,-17.77 -39.68,-39.68 0,-21.91 17.77,-39.68 39.68,-39.68 21.91,0 39.68,17.77 39.68,39.68l0 0z"/>
    <path class="fil2" d="M1079.55 2150.38c0,12.94 -10.49,23.44 -23.43,23.44 -12.94,0 -23.44,-10.5 -23.44,-23.44 0,-12.94 10.5,-23.43 23.44,-23.43 12.94,0 23.43,10.49 23.43,23.43l0 0z"/>
   </g>
   <g>
    <path class="fil1" d="M811.77 2150.38c0,21.91 -17.77,39.68 -39.68,39.68 -21.91,0 -39.68,-17.77 -39.68,-39.68 0,-21.91 17.77,-39.68 39.68,-39.68 21.91,0 39.68,17.77 39.68,39.68l0 0z"/>
    <path class="fil2" d="M795.52 2150.38c0.01,12.94 -10.49,23.44 -23.43,23.44 -12.94,0 -23.43,-10.5 -23.43,-23.44 0,-12.94 10.49,-23.43 23.43,-23.43 12.94,0 23.44,10.49 23.44,23.43l-0.01 0z"/>
   </g>
  </g>
  <path class="fil1" d="M785.21 2083.83l0 84.67c0,70.93 57.5,128.74 128.74,128.74l0 0c70.93,0 128.73,-57.49 128.73,-128.73l0 -84.68c0,-70.93 -57.49,-128.73 -128.73,-128.73l0 0c-70.93,0 -128.74,57.8 -128.74,128.73z"/>
  <path class="fil5" d="M860.2 2110.7c0.01,8.45 -6.85,15.31 -15.31,15.31 -8.45,0 -15.31,-6.86 -15.31,-15.31 0,-8.46 6.86,-15.31 15.31,-15.31 8.46,0 15.32,6.85 15.32,15.31l-0.01 0z"/>
  <path class="fil5" d="M998.31 2110.7c0,8.45 -6.85,15.31 -15.31,15.31 -8.45,0 -15.31,-6.86 -15.31,-15.31 0,-8.46 6.86,-15.31 15.31,-15.31 8.46,0 15.31,6.85 15.31,15.31l0 0z"/>
  <path class="fil6" d="M1011.43 2278.18c29.38,-22.81 28.44,-67.49 -2.5,-88.43 -22.18,-15 -52.8,-26.87 -94.98,-26.87 -42.18,0 -72.81,11.87 -94.99,26.87 -30.93,20.94 -31.87,65.62 -2.5,88.43 26.87,20.93 60.62,33.12 97.49,33.12l0 0c36.87,0 70.61,-12.5 97.48,-33.12z"/>
  <path class="fil4" d="M867.39 2180.69c0,1.56 0,3.13 0,4.69 0,25 20.94,46.24 46.56,46.56l0 0c25.62,-0.32 46.55,-21.56 46.55,-46.56 0,-1.56 0,-3.13 0,-4.69 -30.62,-4.69 -62.18,-4.69 -93.11,0z"/>
  <path class="fil6" d="M1039.56 2138.82c0,0 -35.31,-54.37 -15,-122.48 0,0 35.62,15.31 41.24,34.37 5.63,19.06 -5.62,18.74 -5.62,18.74 0,0 25.62,53.75 -3.13,49.37 -0.31,0 -7.5,13.44 -17.49,20z"/>
  <path class="fil6" d="M790.21 2138.82c0,0 35.31,-54.37 15,-122.48 0,0 -35.62,15.31 -41.24,34.37 -5.63,19.06 5.62,18.74 5.62,18.74 0,0 -25.62,53.75 3.13,49.37 0.31,0 7.18,13.44 17.49,20z"/>
  <path class="fil7" d="M947.69 1978.53c0,6.73 -15.11,12.18 -33.74,12.18 -18.64,0 -33.75,-5.45 -33.75,-12.18 0,-6.73 15.11,-12.19 33.75,-12.19 18.63,0 33.74,5.46 33.74,12.19l0 0z"/>
  <polygon class="fil5" points="984.56,2346.92 1009.56,2346.92 1009.56,2453.78 984.56,2453.78 "/>
  <polygon class="fil5" points="818.65,2346.92 843.64,2346.92 843.64,2453.78 818.65,2453.78 "/>
 </g>
</svg>
