<?xml version="1.0" encoding="UTF-8"?>
<!DOCTYPE svg PUBLIC "-//W3C//DTD SVG 1.1//EN" "http://www.w3.org/Graphics/SVG/1.1/DTD/svg11.dtd">
<!-- Creator: CorelDRAW 2019 (64-Bit) -->
<svg xmlns="http://www.w3.org/2000/svg" xml:space="preserve" width="2480px" height="3508px" version="1.1" style="shape-rendering:geometricPrecision; text-rendering:geometricPrecision; image-rendering:optimizeQuality; fill-rule:evenodd; clip-rule:evenodd"
viewBox="0 0 2480 3507.43"
 xmlns:xlink="http://www.w3.org/1999/xlink">
 <defs>
  <style type="text/css">
   <![CDATA[
    .fil5 {fill:#562617}
    .fil10 {fill:#6D6E71}
    .fil7 {fill:#B9E5FB}
    .fil0 {fill:#D1D3D4}
    .fil11 {fill:#D4EFFC}
    .fil1 {fill:#E6E7E8}
    .fil2 {fill:#EC008C}
    .fil4 {fill:#F58A74}
    .fil3 {fill:#F8AA97}
    .fil8 {fill:#F8C1D9}
    .fil9 {fill:#FCDFEB}
    .fil6 {fill:white}
   ]]>
  </style>
 </defs>
 <g id="Слой_x0020_1">
  <metadata id="CorelCorpID_0Corel-Layer"/>
  <g id="_2496702105824">
   <path class="fil0" d="M2089.42 2392.23c0,0 54.06,49.68 127.8,49.68l0 -449.01 -141.86 76.56 -29.06 216.53 43.12 106.24z"/>
   <path class="fil0" d="M2345.95 2392.23c0,0 -54.05,49.68 -127.79,49.68l0 -449.01 141.85 76.56 29.38 216.84 -43.44 105.93z"/>
  </g>
  <path class="fil1" d="M2019.75 2150.69c33.62,-164.33 79.29,-227.68 177.21,-235.14l20.89 0 0 107.04c0,0 -154.36,84.05 -128.74,369.64 0.31,0 -105.3,-65.93 -69.36,-241.54z"/>
  <path class="fil1" d="M2415.94 2150.69c-33.62,-164.33 -79.3,-227.68 -177.21,-235.14l-20.89 0 0 107.04c0,0 154.36,84.05 128.74,369.64 -0.31,0 105.3,-65.93 69.36,-241.54z"/>
  <path class="fil2" d="M2035.99 2453.78l0 0 363.39 0c0,-59.05 -47.8,-106.86 -106.86,-106.86l-149.67 0c-59.05,0 -106.86,47.81 -106.86,106.86zm363.39 0l0 0z"/>
  <g id="_2496702134368">
   <path class="fil3" d="M2399.38 2150.38c0,21.91 -17.77,39.68 -39.68,39.68 -21.91,0 -39.68,-17.77 -39.68,-39.68 0,-21.91 17.77,-39.68 39.68,-39.68 21.91,0 39.68,17.77 39.68,39.68l0 0z"/>
   <path class="fil4" d="M2383.14 2150.38c0,12.94 -10.5,23.44 -23.44,23.44 -12.94,0 -23.43,-10.5 -23.43,-23.44 0,-12.94 10.49,-23.43 23.43,-23.43 12.94,0 23.44,10.49 23.44,23.43l0 0z"/>
  </g>
  <path class="fil3" d="M2115.36 2150.38c0,21.91 -17.77,39.68 -39.69,39.68 -21.91,0 -39.68,-17.77 -39.68,-39.68 0,-21.91 17.77,-39.68 39.68,-39.68 21.92,0 39.69,17.77 39.69,39.68l0 0z"/>
  <path class="fil4" d="M2099.11 2150.38c0,12.94 -10.49,23.44 -23.44,23.44 -12.94,0 -23.43,-10.5 -23.43,-23.44 0,-12.94 10.49,-23.43 23.43,-23.43 12.95,0 23.44,10.49 23.44,23.43l0 0z"/>
  <path class="fil3" d="M2180.66 2232.25l0 120.92c0,20.31 16.56,37.18 37.18,37.18l0 0c20.31,0 37.19,-16.56 37.19,-37.18l0 -120.92 -74.37 0z"/>
  <path class="fil4" d="M2180.66 2292.55c0,20.31 16.25,37.5 36.56,37.81 0,0 0.31,0 0.31,0l0 0c0,0 0.32,0 0.32,0 20.31,0 36.55,-17.18 36.55,-37.81l0 -48.74 -73.74 0 0 48.74z"/>
  <path class="fil3" d="M2088.8 2041.65l0 126.86c0,70.92 57.49,128.73 128.73,128.73l0 0c70.93,0 128.74,-57.49 128.74,-128.73l0 -126.86c0,-47.81 -38.75,-86.55 -86.56,-86.55l-84.36 0c-47.81,0 -86.55,38.74 -86.55,86.55z"/>
  <path class="fil5" d="M2163.79 2110.7c0,8.45 -6.86,15.31 -15.31,15.31 -8.46,0 -15.31,-6.86 -15.31,-15.31 0,-8.46 6.85,-15.31 15.31,-15.31 8.45,0 15.31,6.85 15.31,15.31l0 0z"/>
  <path class="fil5" d="M2301.9 2110.7c0,8.45 -6.86,15.31 -15.31,15.31 0,0 0,0 0,0 -8.46,0 -15.32,-6.86 -15.32,-15.31 0,-8.46 6.86,-15.31 15.32,-15.31 0,0 0,0 0,0 8.45,0 15.31,6.85 15.31,15.31l0 0z"/>
  <path class="fil6" d="M2170.98 2180.69c0,1.56 0,3.13 0,4.69 0,25 20.93,46.24 46.55,46.56l0 0c25.62,-0.32 46.56,-21.56 46.56,-46.56 0,-1.56 0,-3.13 0,-4.69 -30.62,-4.69 -62.18,-4.69 -93.11,0z"/>
  <path class="fil7" d="M2372.2 2184.44c0,4.66 -3.78,8.44 -8.44,8.44 -4.66,0 -8.43,-3.78 -8.43,-8.44 0,-4.66 3.77,-8.44 8.43,-8.44 4.66,0 8.44,3.78 8.44,8.44l0 0z"/>
  <path class="fil7" d="M2078.8 2184.44c0,4.66 -3.78,8.44 -8.44,8.44 -4.66,0 -8.43,-3.78 -8.43,-8.44 0,-4.66 3.77,-8.44 8.43,-8.44 4.66,0 8.44,3.78 8.44,8.44l0 0z"/>
  <polygon class="fil2" points="2171.29,2319.42 2264.4,2319.42 2264.4,2400.35 2171.29,2400.35 "/>
  <path class="fil8" d="M2196.6 2398.48c0,3.45 -2.8,6.24 -6.25,6.24 -3.45,0 -6.25,-2.79 -6.25,-6.24 0,-3.46 2.8,-6.25 6.25,-6.25 3.45,0 6.25,2.79 6.25,6.25l0 0z"/>
  <g id="_2496632550672">
   <path class="fil9" d="M2163.16 2347.55c0,3.79 -3.07,6.87 -6.87,6.87 -3.8,0 -6.87,-3.08 -6.87,-6.88 0,-3.79 3.07,-6.87 6.87,-6.87 3.8,0 6.87,3.08 6.87,6.87l0 0.01z"/>
   <path class="fil9" d="M2163.16 2361.61c0,3.79 -3.07,6.87 -6.87,6.87 -3.8,0 -6.87,-3.08 -6.87,-6.88 0,-3.79 3.07,-6.87 6.87,-6.87 3.8,0 6.87,3.08 6.87,6.87l0 0.01z"/>
   <path class="fil9" d="M2168.48 2374.42c0,3.79 -3.08,6.87 -6.88,6.87 -3.79,0 -6.87,-3.08 -6.87,-6.87 0,-3.8 3.08,-6.88 6.87,-6.88 3.8,0 6.88,3.08 6.88,6.88l0 0z"/>
   <path class="fil9" d="M2175.35 2386.29c0,3.79 -3.08,6.87 -6.87,6.87 -3.8,0 -6.88,-3.08 -6.88,-6.87 0,-3.8 3.08,-6.88 6.88,-6.88 3.79,0 6.87,3.08 6.87,6.88l0 0z"/>
   <path class="fil9" d="M2185.66 2395.66c0,3.8 -3.08,6.88 -6.87,6.88 -3.8,0 -6.88,-3.08 -6.88,-6.88 0,-3.79 3.08,-6.87 6.88,-6.87 3.79,0 6.87,3.08 6.87,6.87l0 0z"/>
   <path class="fil9" d="M2196.6 2405.04c0,3.79 -3.08,6.87 -6.88,6.87 -3.79,0 -6.87,-3.08 -6.87,-6.87 0,-3.8 3.08,-6.88 6.87,-6.88 3.8,0 6.88,3.08 6.88,6.88l0 0z"/>
   <path class="fil9" d="M2210.66 2409.73c0,3.79 -3.08,6.87 -6.88,6.87 -3.79,0 -6.87,-3.08 -6.87,-6.88 0,-3.79 3.08,-6.87 6.87,-6.87 3.8,0 6.88,3.08 6.88,6.87l0 0.01z"/>
   <path class="fil9" d="M2224.72 2412.22c0,3.8 -3.08,6.88 -6.87,6.88 -3.8,0 -6.88,-3.08 -6.88,-6.88 0,-3.79 3.08,-6.87 6.88,-6.87 3.79,0 6.87,3.08 6.87,6.87l0 0z"/>
  </g>
  <path class="fil9" d="M2286.27 2347.55c0,3.79 -3.08,6.87 -6.87,6.87 -3.8,0 -6.88,-3.08 -6.88,-6.88 0,-3.79 3.08,-6.87 6.88,-6.87 3.79,0 6.87,3.08 6.87,6.87l0 0.01z"/>
  <path class="fil9" d="M2286.27 2361.61c0,3.79 -3.08,6.87 -6.87,6.87 -3.8,0 -6.88,-3.08 -6.88,-6.88 0,-3.79 3.08,-6.87 6.88,-6.87 3.79,0 6.87,3.08 6.87,6.87l0 0.01z"/>
  <path class="fil9" d="M2280.96 2374.42c0,3.79 -3.08,6.87 -6.87,6.87 -3.8,0 -6.88,-3.08 -6.88,-6.87 0,-3.8 3.08,-6.88 6.88,-6.88 3.79,0 6.87,3.08 6.87,6.88l0 0z"/>
  <path class="fil9" d="M2274.09 2386.29c0,3.79 -3.08,6.87 -6.88,6.87 -3.79,0 -6.87,-3.08 -6.87,-6.87 0,-3.8 3.08,-6.88 6.87,-6.88 3.8,0 6.88,3.08 6.88,6.88l0 0z"/>
  <path class="fil9" d="M2263.78 2395.66c0,3.8 -3.08,6.88 -6.88,6.88 -3.79,0 -6.87,-3.08 -6.87,-6.88 0,-3.79 3.08,-6.87 6.87,-6.87 3.8,0 6.88,3.08 6.88,6.87l0 0z"/>
  <path class="fil9" d="M2252.84 2405.04c0,3.79 -3.08,6.87 -6.87,6.87 -3.8,0 -6.88,-3.08 -6.88,-6.87 0,-3.8 3.08,-6.88 6.88,-6.88 3.79,0 6.87,3.08 6.87,6.88l0 0z"/>
  <path class="fil9" d="M2238.78 2409.73c0,3.79 -3.08,6.87 -6.87,6.87 -3.8,0 -6.88,-3.08 -6.88,-6.88 0,-3.79 3.08,-6.87 6.88,-6.87 3.79,0 6.87,3.08 6.87,6.87l0 0.01z"/>
  <g id="_2496705073904">
   <g>
    <polygon class="fil10" points="2292.65,2126.53 2346.04,2107.87 2347.28,2111.41 2293.89,2130.07 "/>
   </g>
   <g>
    <polygon class="fil10" points="2088.07,2111.39 2089.31,2107.85 2142.69,2126.51 2141.46,2130.05 "/>
   </g>
  </g>
  <path class="fil10" d="M2240.97 2131.64c-14.06,-8.75 -31.56,-8.75 -45.62,0l-1.88 -3.13c15.31,-9.37 34.06,-9.37 49.37,0l-1.87 3.13z"/>
  <path class="fil11" d="M2134.73 2128.51l0 15.31c0,5.31 4.37,9.69 9.69,9.69l44.37 0c5.31,0 9.68,-4.38 9.68,-9.69l0 -15.31c0,-5.31 -4.37,-9.69 -9.68,-9.69l-44.37 0c-5.31,0.32 -9.69,4.38 -9.69,9.69z"/>
  <path class="fil11" d="M2236.59 2128.51l0 15.31c0,5.31 4.38,9.69 9.69,9.69l44.37 0c5.31,0 9.68,-4.38 9.68,-9.69l0 -15.31c0,-5.31 -4.37,-9.69 -9.68,-9.69l-44.37 0c-5.31,0.32 -9.69,4.38 -9.69,9.69z"/>
  <polygon class="fil6" points="2278.46,2119.14 2265.96,2153.51 2275.34,2153.51 2287.84,2119.14 "/>
  <polygon class="fil6" points="2289.4,2119.14 2276.9,2153.51 2279.71,2153.51 2292.52,2119.14 "/>
  <polygon class="fil6" points="2171.91,2119.14 2159.1,2153.51 2168.79,2153.51 2181.29,2119.14 "/>
  <polygon class="fil6" points="2182.85,2119.14 2170.35,2153.51 2173.16,2153.51 2185.66,2119.14 "/>
  <path class="fil1" d="M2217.54 1915.55l0.31 75.48c0,0 8.12,28.43 33.43,58.74 4.69,4.69 9.68,10 15,16.25 19.06,18.43 44.99,36.24 79.67,47.18l61.25 0c-32.59,-136.44 -78.45,-190.8 -168.85,-197.65l-20.81 0z"/>
  <path class="fil1" d="M2218.15 1915.55l-0.31 75.48c0,0 -8.12,28.43 -33.43,58.74 -4.69,4.69 -9.69,10 -15,16.25 -19.06,18.43 -44.99,36.24 -79.67,47.18l-61.25 0c32.88,-136.44 78.76,-190.8 168.91,-197.65l20.75 0z"/>
 </g>
</svg>
