<?xml version="1.0" encoding="UTF-8"?>
<!DOCTYPE svg PUBLIC "-//W3C//DTD SVG 1.1//EN" "http://www.w3.org/Graphics/SVG/1.1/DTD/svg11.dtd">
<!-- Creator: CorelDRAW 2019 (64-Bit) -->
<svg xmlns="http://www.w3.org/2000/svg" xml:space="preserve" width="248px" height="351px" version="1.1" style="shape-rendering:geometricPrecision; text-rendering:geometricPrecision; image-rendering:optimizeQuality; fill-rule:evenodd; clip-rule:evenodd"
viewBox="0 0 248 350.74"
 xmlns:xlink="http://www.w3.org/1999/xlink">
 <defs>
  <style type="text/css">
   <![CDATA[
    .fil0 {fill:#552419}
    .fil5 {fill:#562617}
    .fil1 {fill:#9B1C51}
    .fil4 {fill:#AA4D67}
    .fil3 {fill:#F58A74}
    .fil2 {fill:#F8AA97}
    .fil6 {fill:white}
   ]]>
  </style>
 </defs>
 <g id="Слой_x0020_1">
  <metadata id="CorelCorpID_0Corel-Layer"/>
  <g id="_2496571376848">
   <path class="fil0" d="M26.22 115.58l-13.57 -2.78c0,0 -14.12,19.03 1.69,31.06l11.88 0 0 -28.28z"/>
   <path class="fil0" d="M26.22 115.58l13.56 -2.78c0,0 5,6.74 5.72,14.73l0 3.69c-0.42,4.36 -2.43,8.85 -7.41,12.64l-11.87 0 0 -28.28z"/>
  </g>
  <path class="fil1" d="M8.03 161.86l0 0 36.34 0c0,-5.91 -4.78,-10.69 -10.69,-10.69l-14.96 0c-5.91,0 -10.69,4.78 -10.69,10.69zm36.34 0l0 0z"/>
  <g id="_2496571377808">
   <path class="fil2" d="M44.37 131.52c0,2.19 -1.78,3.97 -3.97,3.97 -2.19,0 -3.97,-1.78 -3.97,-3.97 0,-2.19 1.78,-3.97 3.97,-3.97 2.19,0 3.97,1.78 3.97,3.97l0 0z"/>
   <path class="fil3" d="M42.74 131.52c0,1.29 -1.04,2.34 -2.34,2.34 -1.29,0 -2.34,-1.05 -2.34,-2.34 0,-1.3 1.05,-2.35 2.34,-2.35 1.3,0 2.34,1.05 2.34,2.35l0 0z"/>
  </g>
  <path class="fil2" d="M15.97 131.52c0,2.19 -1.78,3.97 -3.97,3.97 -2.19,0 -3.97,-1.78 -3.97,-3.97 0,-2.19 1.78,-3.97 3.97,-3.97 2.19,0 3.97,1.78 3.97,3.97l0 0z"/>
  <path class="fil3" d="M14.34 131.52c0,1.29 -1.05,2.34 -2.34,2.34 -1.3,0 -2.34,-1.05 -2.34,-2.34 0,-1.3 1.04,-2.35 2.34,-2.35 1.29,0 2.34,1.05 2.34,2.35l0 0z"/>
  <path class="fil4" d="M26.22 157.48c3.15,0 5.68,-2.56 5.68,-5.68l0 -0.63 -11.4 0 0 0.63c0,3.12 2.56,5.68 5.72,5.68z"/>
  <path class="fil2" d="M22.5 139.7l0 12.1c0,2.03 1.65,3.71 3.72,3.71l0 0c2.03,0 3.71,-1.65 3.71,-3.71l0 -12.1 -7.43 0z"/>
  <path class="fil3" d="M22.5 145.73c0,2.04 1.62,3.75 3.65,3.79 0,0 0.03,0 0.03,0l0 0c0,0 0.04,0 0.04,0 2.03,0 3.65,-1.72 3.65,-3.79l0 -4.87 -7.37 0 0 4.87z"/>
  <path class="fil2" d="M13.34 120.64l0 12.69c0,7.09 5.75,12.87 12.88,12.87l0 0c7.09,0 12.87,-5.75 12.87,-12.87l0 -12.69c0,-4.78 -3.88,-8.65 -8.66,-8.65l-8.43 0c-4.78,0 -8.66,3.87 -8.66,8.65z"/>
  <path class="fil5" d="M20.84 127.55c0,0.84 -0.68,1.53 -1.53,1.53 0,0 0,0 0,0 -0.85,0 -1.53,-0.69 -1.53,-1.53 0,-0.85 0.68,-1.53 1.53,-1.53 0,0 0,0 0,0 0.85,0 1.53,0.68 1.53,1.53l0 0z"/>
  <path class="fil5" d="M34.65 127.55c0,0.84 -0.68,1.53 -1.53,1.53 -0.84,0 -1.53,-0.69 -1.53,-1.53 0,-0.85 0.69,-1.53 1.53,-1.53 0.85,0 1.53,0.68 1.53,1.53l0 0z"/>
  <path class="fil6" d="M21.56 134.55c0,0.15 0,0.31 0,0.47 0,2.5 2.09,4.62 4.66,4.65l0 0c2.56,-0.03 4.65,-2.15 4.65,-4.65 0,-0.16 0,-0.32 0,-0.47 -3.09,-0.47 -6.22,-0.47 -9.31,0z"/>
  <path class="fil0" d="M23.28 108.07c-17.02,1.4 -11.28,15.1 -11.28,15.1l8.03 0 0.81 -3.9 0.81 3.9 0 0 11.81 0 0.82 -3.9 0.81 3.9 0 0 5.37 0c-0.06,0 5.71,-13.7 -11.31,-15.1l-5.87 0z"/>
 </g>
</svg>
