<?xml version="1.0" encoding="UTF-8"?>
<!DOCTYPE svg PUBLIC "-//W3C//DTD SVG 1.1//EN" "http://www.w3.org/Graphics/SVG/1.1/DTD/svg11.dtd">
<!-- Creator: CorelDRAW 2019 (64-Bit) -->
<svg xmlns="http://www.w3.org/2000/svg" xml:space="preserve" width="2480px" height="3508px" version="1.1" style="shape-rendering:geometricPrecision; text-rendering:geometricPrecision; image-rendering:optimizeQuality; fill-rule:evenodd; clip-rule:evenodd"
viewBox="0 0 2480 3507.43"
 xmlns:xlink="http://www.w3.org/1999/xlink">
 <defs>
  <style type="text/css">
   <![CDATA[
    .fil0 {fill:#360B00}
    .fil1 {fill:#552419}
    .fil6 {fill:#562617}
    .fil8 {fill:#B9E5FB}
    .fil2 {fill:#EC008C}
    .fil3 {fill:#F287B7}
    .fil5 {fill:#F58A74}
    .fil4 {fill:#F8AA97}
    .fil7 {fill:white}
   ]]>
  </style>
 </defs>
 <g id="Слой_x0020_1">
  <metadata id="CorelCorpID_0Corel-Layer"/>
  <g id="_2496629915120">
   <path class="fil0" d="M133.73 2392.23c0,0 54.06,49.68 127.8,49.68l0 -449.01 -141.86 76.56 -29.37 216.53 43.43 106.24z"/>
   <path class="fil0" d="M390.26 2392.23c0,0 -54.05,49.68 -127.79,49.68l0 -449.01 141.86 76.56 29.37 216.84 -43.44 105.93z"/>
  </g>
  <path class="fil1" d="M459.94 2150.69c-35.93,-175.6 -85.61,-235.9 -198.1,-235.9l0 107.8c0,0 154.36,84.05 128.74,369.64 0,0 105.3,-65.93 69.36,-241.54z"/>
  <path class="fil2" d="M79.99 2453.78l0 0 363.39 0c0,-59.05 -47.8,-106.86 -106.86,-106.86l-149.67 0c-58.74,0 -106.86,47.81 -106.86,106.86zm363.39 0l0 0z"/>
  <path class="fil3" d="M261.53 2453.78l0.62 0c67.81,-26.87 79.68,-103.74 79.99,-106.55 -1.87,0 -3.75,0 -5.62,0l-31.56 0 -42.81 0 -0.62 0 -43.12 0 -31.56 0c-1.87,0 -3.75,0 -5.62,0 0.62,2.81 12.5,79.99 80.3,106.55z"/>
  <path class="fil4" d="M324.65 2346.92l-29.06 0 -33.44 0 -0.31 0 -33.74 0 -29.06 0c0,0 8.75,64.05 62.49,85.93l0 0.31c0,0 0,0 0.31,0 0,0 0,0 0.32,0l-0.01 -0.31c54.06,-21.88 62.5,-85.93 62.5,-85.93z"/>
  <g id="_2496518286320">
   <path class="fil4" d="M443.69 2150.38c0.01,21.91 -17.76,39.68 -39.68,39.68 -21.91,0 -39.68,-17.77 -39.68,-39.68 0,-21.91 17.77,-39.68 39.68,-39.68 21.92,0 39.69,17.77 39.69,39.68l-0.01 0z"/>
   <path class="fil5" d="M427.45 2150.38c0,12.94 -10.5,23.44 -23.44,23.44 -12.94,0 -23.43,-10.5 -23.43,-23.44 0,-12.94 10.49,-23.43 23.43,-23.43 12.94,0 23.44,10.49 23.44,23.43l0 0z"/>
  </g>
  <path class="fil4" d="M159.36 2150.38c0,21.91 -17.77,39.68 -39.69,39.68 -21.91,0 -39.68,-17.77 -39.68,-39.68 0,-21.91 17.77,-39.68 39.68,-39.68 21.92,0 39.69,17.77 39.69,39.68l0 0z"/>
  <path class="fil5" d="M143.11 2150.38c0,12.94 -10.49,23.44 -23.44,23.44 -12.94,0 -23.43,-10.5 -23.43,-23.44 0,-12.94 10.49,-23.43 23.43,-23.43 12.95,0 23.44,10.49 23.44,23.43l0 0z"/>
  <path class="fil4" d="M224.66 2232.25l0 120.92c0,20.31 16.56,37.18 37.18,37.18l0 0c20.31,0 37.19,-16.56 37.19,-37.18l0 -120.92 -74.37 0z"/>
  <path class="fil5" d="M224.66 2292.55c0,20.31 16.25,37.5 36.56,37.81 0,0 0.31,0 0.31,0l0 0c0,0 0.31,0 0.31,0 20.31,0 36.56,-17.18 36.56,-37.81l0 -48.74 -73.74 0 0 48.74z"/>
  <path class="fil4" d="M133.11 2041.65l0 126.86c0,70.92 57.49,128.73 128.73,128.73l0 0c70.93,0 128.74,-57.49 128.74,-128.73l0 -126.86c0,-47.81 -38.75,-86.55 -86.56,-86.55l-84.36 0c-47.81,0 -86.55,38.74 -86.55,86.55z"/>
  <path class="fil6" d="M208.1 2110.7c0,8.45 -6.86,15.31 -15.31,15.31 -8.45,0 -15.31,-6.86 -15.31,-15.31 0,-8.46 6.86,-15.31 15.31,-15.31 8.45,0 15.31,6.85 15.31,15.31l0 0z"/>
  <path class="fil6" d="M346.21 2110.7c0,8.45 -6.86,15.31 -15.31,15.31 -8.46,0 -15.31,-6.86 -15.31,-15.31 0,-8.46 6.85,-15.31 15.31,-15.31 8.45,0 15.31,6.85 15.31,15.31l0 0z"/>
  <path class="fil7" d="M215.29 2180.69c0,1.56 0,3.13 0,4.69 0,25 20.93,46.24 46.55,46.56l0 0c25.63,-0.32 46.56,-21.56 46.56,-46.56 0,-1.56 0,-3.13 0,-4.69 -30.93,-4.69 -62.18,-4.69 -93.11,0z"/>
  <path class="fil8" d="M416.51 2184.44c0,4.66 -3.78,8.44 -8.43,8.44 -4.66,0 -8.44,-3.78 -8.44,-8.44 0,-4.66 3.78,-8.44 8.44,-8.44 4.65,0 8.43,3.78 8.43,8.44l0 0z"/>
  <path class="fil8" d="M122.8 2184.44c0,4.66 -3.78,8.44 -8.44,8.44 -4.66,0 -8.43,-3.78 -8.43,-8.44 0,-4.66 3.77,-8.44 8.43,-8.44 4.66,0 8.44,3.78 8.44,8.44l0 0z"/>
  <path class="fil1" d="M261.84 1914.79l0.32 76.24c0,0 8.12,28.43 33.43,58.74 4.69,4.69 9.69,10 15,16.25 19.06,18.43 44.99,36.24 79.67,47.18l61.25 0c-35.31,-146.54 -85.62,-198.41 -189.67,-198.41z"/>
  <path class="fil1" d="M131.55 2362.54c-12.81,-263.71 130.61,-369.33 130.61,-369.33l0 -78.11c-112.49,0 -162.17,60.31 -198.1,235.91 -25.94,126.23 21.56,195.91 49.99,224.97 5.31,-5.31 11.25,-9.69 17.5,-13.44z"/>
 </g>
</svg>
