<?xml version="1.0" encoding="UTF-8"?>
<!DOCTYPE svg PUBLIC "-//W3C//DTD SVG 1.1//EN" "http://www.w3.org/Graphics/SVG/1.1/DTD/svg11.dtd">
<!-- Creator: CorelDRAW 2019 (64-Bit) -->
<svg xmlns="http://www.w3.org/2000/svg" xml:space="preserve" width="2480px" height="3508px" version="1.1" style="shape-rendering:geometricPrecision; text-rendering:geometricPrecision; image-rendering:optimizeQuality; fill-rule:evenodd; clip-rule:evenodd"
viewBox="0 0 2480 3507.43"
 xmlns:xlink="http://www.w3.org/1999/xlink"
 enable-background="new 0 0 841.9 595.3">
 <defs>
  <style type="text/css">
   <![CDATA[
    .fil0 {fill:#1C75BC}
    .fil1 {fill:#27AAE1}
    .fil8 {fill:#552419}
    .fil5 {fill:#562617}
    .fil10 {fill:#808285}
    .fil2 {fill:#DCDDDE}
    .fil6 {fill:#E19B8A}
    .fil9 {fill:#F1F2F2}
    .fil4 {fill:#F58A74}
    .fil3 {fill:#F8AA97}
    .fil7 {fill:white}
   ]]>
  </style>
 </defs>
 <g id="Слой_x0020_1">
  <metadata id="CorelCorpID_0Corel-Layer"/>
  <path class="fil0" d="M1384.2 2453.78l0 0 363.39 0c0,-59.05 -47.81,-106.86 -106.86,-106.86l-149.67 0c-59.05,0 -106.86,47.81 -106.86,106.86zm363.39 0l0 0z"/>
  <polygon class="fil1" points="1490.75,2346.92 1566.05,2453.78 1641.35,2346.92 "/>
  <polygon class="fil2" points="1505.75,2346.92 1566.05,2432.22 1626.05,2346.92 "/>
  <g id="_2496708838896">
   <path class="fil3" d="M1747.59 2150.38c0,21.91 -17.77,39.68 -39.68,39.68 -21.91,0 -39.68,-17.77 -39.68,-39.68 0,-21.91 17.77,-39.68 39.68,-39.68 21.91,0 39.68,17.77 39.68,39.68l0 0z"/>
   <path class="fil4" d="M1731.34 2150.38c0,12.94 -10.49,23.44 -23.43,23.44 -12.94,0 -23.43,-10.5 -23.43,-23.44 0,-12.94 10.49,-23.43 23.43,-23.43 12.94,0 23.43,10.49 23.43,23.43l0 0z"/>
  </g>
  <path class="fil3" d="M1463.56 2150.38c0,21.91 -17.76,39.68 -39.68,39.68 -21.91,0 -39.68,-17.77 -39.68,-39.68 0,-21.91 17.77,-39.68 39.68,-39.68 21.92,0 39.68,17.77 39.68,39.68l0 0z"/>
  <path class="fil4" d="M1447.32 2150.38c0,12.94 -10.5,23.44 -23.44,23.44 -12.94,0 -23.43,-10.5 -23.43,-23.44 0,-12.94 10.49,-23.43 23.43,-23.43 12.94,0 23.44,10.49 23.44,23.43l0 0z"/>
  <polygon class="fil3" points="1528.87,2231.62 1528.87,2327.55 1566.05,2373.79 1602.92,2327.55 1602.92,2231.62 "/>
  <path class="fil4" d="M1528.87 2292.55c0,20.31 16.25,37.5 36.56,37.81 0,0 0.31,0 0.31,0l0 0c0,0 0.31,0 0.31,0 20.31,0 36.56,-17.18 36.56,-37.81l0 -48.74 -74.05 0 0 48.74 0.31 0z"/>
  <path class="fil3" d="M1437.32 2041.65l0 126.86c0,70.92 57.49,128.73 128.73,128.73l0 0c70.93,0 128.74,-57.49 128.74,-128.73l0 -126.86c0,-47.81 -38.75,-86.55 -86.56,-86.55l-84.36 0c-47.81,0 -86.55,38.74 -86.55,86.55z"/>
  <path class="fil5" d="M1512.31 2110.7c0,8.45 -6.86,15.31 -15.31,15.31 -8.46,0 -15.31,-6.86 -15.31,-15.31 0,-8.46 6.85,-15.31 15.31,-15.31 8.45,0 15.31,6.85 15.31,15.31l0 0z"/>
  <path class="fil5" d="M1650.1 2110.7c0,8.45 -6.85,15.31 -15.31,15.31 -8.45,0 -15.31,-6.86 -15.31,-15.31 0,-8.46 6.86,-15.31 15.31,-15.31 8.46,0 15.31,6.85 15.31,15.31l0 0z"/>
  <path class="fil6" d="M1676.66 2234.12c-13.12,-21.56 -44.99,-57.18 -110.61,-57.18 -65.62,0 -97.49,35.62 -110.61,57.18 22.5,37.5 63.43,62.81 110.61,62.81l0 0c46.87,0.31 88.12,-25 110.61,-62.81z"/>
  <path class="fil7" d="M1519.5 2180.69c0,1.56 0,3.13 0,4.69 0,25 20.93,46.24 46.55,46.56l0 0c25.62,-0.32 46.56,-21.56 46.56,-46.56 0,-1.56 0,-3.13 0,-4.69 -30.93,-4.69 -62.49,-4.69 -93.11,0z"/>
  <path class="fil8" d="M1566.05 2165.38c-34.99,0.31 -63.43,17.5 -63.43,37.5 0,1.25 0,2.5 0,3.75 28.75,2.5 63.43,-9.07 63.43,-9.07 0,0 34.69,11.57 63.43,9.07 0,0 0,0 0,0 0,0 0,0 0,0 0,-1.25 0,-2.5 0,-3.75 0,-20.31 -28.43,-37.19 -63.43,-37.5z"/>
  <path class="fil8" d="M1704.16 2006.34c-21.87,-74.68 -98.74,-91.55 -138.11,-91.55 -39.37,0 -116.55,16.56 -138.42,91.55 -21.87,74.68 9.69,106.86 9.69,106.86 0,0 36.25,-40.31 36.25,-108.42 0,0 38.74,10 92.48,10 53.75,0 92.18,-10 92.18,-10 0,68.11 36.25,108.42 36.25,108.42 0,0 31.86,-32.18 9.68,-106.86z"/>
  <path class="fil8" d="M1473.56 2004.46c0,0 31.56,62.5 139.05,58.75 0,0.31 -16.56,-51.56 -139.05,-58.75z"/>
  <path class="fil8" d="M1473.56 2004.46c0,0 68.74,60.93 221.23,37.19 0,0 10.62,-72.81 -91.56,-78.74 -102.48,-6.25 -129.67,41.55 -129.67,41.55z"/>
  <polygon class="fil9" points="1566.05,2373.79 1528.87,2327.55 1505.75,2346.92 1525.74,2412.22 1545.12,2366.92 "/>
  <polygon class="fil9" points="1566.05,2373.79 1602.92,2327.55 1626.05,2346.92 1606.36,2412.22 1586.99,2366.92 "/>
  <path class="fil10" d="M1573.55 2392.85c0,4.14 -3.36,7.5 -7.5,7.5 -4.14,0 -7.5,-3.36 -7.5,-7.5 0,-4.14 3.36,-7.5 7.5,-7.5 4.14,0 7.5,3.36 7.5,7.5l0 0z"/>
 </g>
</svg>
