<?xml version="1.0" encoding="UTF-8"?>
<!DOCTYPE svg PUBLIC "-//W3C//DTD SVG 1.1//EN" "http://www.w3.org/Graphics/SVG/1.1/DTD/svg11.dtd">
<!-- Creator: CorelDRAW 2019 (64-Bit) -->
<svg xmlns="http://www.w3.org/2000/svg" xml:space="preserve" width="187px" height="187px" version="1.1" style="shape-rendering:geometricPrecision; text-rendering:geometricPrecision; image-rendering:optimizeQuality; fill-rule:evenodd; clip-rule:evenodd"
viewBox="0 0 187 187"
 xmlns:xlink="http://www.w3.org/1999/xlink">
 <defs>
  <style type="text/css">
   <![CDATA[
    .fil0 {fill:#1C75BC}
    .fil1 {fill:#27AAE1}
    .fil8 {fill:#552419}
    .fil5 {fill:#562617}
    .fil10 {fill:#808285}
    .fil2 {fill:#DCDDDE}
    .fil6 {fill:#E19B8A}
    .fil9 {fill:#F1F2F2}
    .fil4 {fill:#F58A74}
    .fil3 {fill:#F8AA97}
    .fil7 {fill:white}
   ]]>
  </style>
 </defs>
 <g id="Слой_x0020_1">
  <metadata id="CorelCorpID_0Corel-Layer"/>
  <path class="fil0" d="M37 186.21l123.28 0c0,-20.1 -16.27,-36.38 -36.37,-36.38l-50.95 0c-18.21,0 -33.28,13.36 -35.96,30.81l0 5.57zm123.28 0l0 0z"/>
  <polygon class="fil1" points="72.85,149.83 98.49,186.21 124.12,149.83 "/>
  <polygon class="fil2" points="77.96,149.83 98.49,178.87 118.91,149.83 "/>
  <g id="_2496708838896">
   <path class="fil3" d="M160.28 82.93c0,7.45 -6.05,13.5 -13.5,13.5 -7.46,0 -13.51,-6.05 -13.51,-13.5 0,-7.46 6.05,-13.51 13.51,-13.51 7.45,0 13.5,6.05 13.5,13.51l0 0z"/>
   <path class="fil4" d="M154.75 82.93c0,4.4 -3.57,7.98 -7.97,7.98 -4.41,0 -7.98,-3.58 -7.98,-7.98 0,-4.41 3.57,-7.98 7.98,-7.98 4.4,0 7.97,3.57 7.97,7.98l0 0z"/>
  </g>
  <path class="fil3" d="M63.6 82.93c0,7.45 -6.05,13.5 -13.51,13.5 -6.3,0 -11.59,-4.31 -13.09,-10.14l0 -6.73c1.5,-5.83 6.79,-10.14 13.09,-10.14 7.46,0 13.51,6.05 13.51,13.51l0 0z"/>
  <path class="fil4" d="M58.07 82.93c0,4.4 -3.57,7.98 -7.98,7.98 -4.4,0 -7.98,-3.58 -7.98,-7.98 0,-4.41 3.58,-7.98 7.98,-7.98 4.41,0 7.98,3.57 7.98,7.98l0 0z"/>
  <polygon class="fil3" points="85.83,110.58 85.83,143.24 98.49,158.98 111.04,143.24 111.04,110.58 "/>
  <path class="fil4" d="M85.83 131.32c0,6.92 5.53,12.77 12.45,12.87 0,0 0.1,0 0.1,0l0 0c0,0 0.11,0 0.11,0 6.91,0 12.44,-5.85 12.44,-12.87l0 -16.59 -25.21 0 0 16.59 0.11 0z"/>
  <path class="fil3" d="M54.67 45.91l0 43.19c0,24.14 19.56,43.82 43.82,43.82l0 0c24.14,0 43.82,-19.57 43.82,-43.82l0 -43.19c0,-16.27 -13.19,-29.46 -29.47,-29.46l-28.71 0c-16.28,0 -29.46,13.19 -29.46,29.46z"/>
  <path class="fil5" d="M80.19 69.42c0,2.87 -2.33,5.21 -5.21,5.21 -2.88,0 -5.21,-2.34 -5.21,-5.21 0,-2.88 2.33,-5.21 5.21,-5.21 2.88,0 5.21,2.33 5.21,5.21l0 0z"/>
  <path class="fil5" d="M127.1 69.42c0,2.87 -2.33,5.21 -5.21,5.21 -2.88,0 -5.22,-2.34 -5.22,-5.21 0,-2.88 2.34,-5.21 5.22,-5.21 2.88,0 5.21,2.33 5.21,5.21l0 0z"/>
  <path class="fil6" d="M136.14 111.43c-4.47,-7.34 -15.32,-19.46 -37.65,-19.46 -22.34,0 -33.19,12.12 -37.66,19.46 7.66,12.77 21.6,21.38 37.66,21.38l0 0c15.95,0.11 29.99,-8.51 37.65,-21.38z"/>
  <path class="fil7" d="M82.64 93.24c0,0.54 0,1.07 0,1.6 0,8.51 7.12,15.74 15.85,15.85l0 0c8.72,-0.11 15.85,-7.34 15.85,-15.85 0,-0.53 0,-1.06 0,-1.6 -10.53,-1.59 -21.28,-1.59 -31.7,0z"/>
  <path class="fil8" d="M98.49 88.03c-11.91,0.11 -21.6,5.96 -21.6,12.77 0,0.42 0,0.85 0,1.27 9.79,0.86 21.6,-3.08 21.6,-3.08 0,0 11.81,3.94 21.59,3.08 0,0 0,0 0,0 0,0 0,0 0,0 0,-0.42 0,-0.85 0,-1.27 0,-6.92 -9.68,-12.66 -21.59,-12.77z"/>
  <path class="fil8" d="M145.5 33.89c-7.45,-25.42 -33.61,-31.16 -47.01,-31.16 -13.41,0 -39.68,5.64 -47.12,31.16 -7.45,25.43 3.3,36.38 3.3,36.38 0,0 12.34,-13.72 12.34,-36.91 0,0 13.18,3.41 31.48,3.41 18.29,0 31.38,-3.41 31.38,-3.41 0,23.19 12.34,36.91 12.34,36.91 0,0 10.84,-10.95 3.29,-36.38z"/>
  <path class="fil8" d="M67 33.25c0,0 10.75,21.28 47.34,20 0,0.11 -5.64,-17.55 -47.34,-20z"/>
  <path class="fil8" d="M67 33.25c0,0 23.4,20.74 75.31,12.66 0,0 3.62,-24.78 -31.17,-26.8 -34.88,-2.13 -44.14,14.14 -44.14,14.14z"/>
  <polygon class="fil9" points="98.49,158.98 85.83,143.24 77.96,149.83 84.76,172.06 91.36,156.64 "/>
  <polygon class="fil9" points="98.49,158.98 111.04,143.24 118.91,149.83 112.21,172.06 105.61,156.64 "/>
  <path class="fil10" d="M101.04 165.46c0,1.41 -1.14,2.56 -2.55,2.56 -1.41,0 -2.56,-1.15 -2.56,-2.56 0,-1.4 1.15,-2.55 2.56,-2.55 1.41,0 2.55,1.15 2.55,2.55l0 0z"/>
 </g>
</svg>
